<svg width="407" height="429" viewBox="0 0 407 429" fill="none" xmlns="http://www.w3.org/2000/svg">
<path d="M241.414 245.971C241.488 246.038 241.559 246.109 241.626 246.183L242.23 246.808L244.562 249.278L253.358 258.699L284.527 292.306H284.167L319.522 251.811L319.766 251.535L319.967 251.842L322.543 255.721L349.292 295.994L348.921 295.93L374.632 275.391L374.78 275.275L374.908 275.412L394.535 297.668L399.834 303.741L401.212 305.331C401.519 305.691 401.668 305.882 401.668 305.882C401.668 305.882 401.488 305.712 401.17 305.373L399.771 303.741L394.366 297.743L374.611 275.646H374.886L349.239 296.322L349.027 296.492L348.868 296.259L322.087 256.05L319.501 252.16H319.935C307.069 266.892 294.966 280.722 284.538 292.656L284.358 292.857L284.177 292.656C271.375 278.73 260.66 267.093 253.146 258.911L244.456 249.373L242.177 246.851C241.933 246.564 241.743 246.353 241.594 246.194C241.446 246.035 241.404 245.982 241.414 245.971Z" fill="#E6E6E6"/>
<path d="M280.87 292.581C280.864 293.318 281.077 294.039 281.482 294.654C281.887 295.269 282.466 295.749 283.145 296.034C283.824 296.319 284.573 296.395 285.295 296.253C286.018 296.111 286.682 295.757 287.202 295.236C287.723 294.715 288.077 294.052 288.219 293.329C288.361 292.607 288.285 291.858 288 291.179C287.716 290.5 287.235 289.921 286.62 289.516C286.006 289.111 285.284 288.898 284.548 288.904C283.574 288.91 282.642 289.299 281.954 289.987C281.265 290.676 280.876 291.608 280.87 292.581Z" fill="#E0E0E0"/>
<path d="M345.805 297.001C345.809 297.735 346.031 298.451 346.443 299.059C346.854 299.667 347.437 300.139 348.117 300.416C348.797 300.692 349.544 300.761 350.263 300.613C350.982 300.465 351.641 300.106 352.156 299.584C352.671 299.061 353.02 298.397 353.158 297.676C353.296 296.955 353.216 296.209 352.93 295.533C352.644 294.857 352.164 294.281 351.55 293.879C350.936 293.476 350.217 293.264 349.483 293.27C348.501 293.279 347.562 293.676 346.873 294.376C346.184 295.075 345.8 296.019 345.805 297.001Z" fill="#E0E0E0"/>
<path d="M371.06 276.578C371.066 277.31 371.29 278.023 371.701 278.628C372.113 279.232 372.695 279.702 373.373 279.976C374.051 280.25 374.795 280.317 375.511 280.168C376.228 280.019 376.884 279.661 377.396 279.139C377.909 278.618 378.256 277.955 378.392 277.237C378.529 276.518 378.449 275.775 378.164 275.102C377.878 274.428 377.399 273.855 376.787 273.454C376.175 273.052 375.459 272.842 374.727 272.848C373.747 272.859 372.811 273.258 372.124 273.957C371.437 274.656 371.054 275.598 371.06 276.578Z" fill="#E0E0E0"/>
<path d="M316.024 252.309C316.029 253.043 316.251 253.759 316.662 254.367C317.074 254.975 317.656 255.447 318.336 255.723C319.016 256 319.763 256.069 320.482 255.92C321.201 255.772 321.86 255.414 322.375 254.892C322.891 254.369 323.239 253.705 323.377 252.984C323.515 252.263 323.436 251.517 323.149 250.841C322.863 250.165 322.383 249.589 321.769 249.186C321.155 248.784 320.436 248.572 319.702 248.578C318.72 248.587 317.782 248.984 317.092 249.683C316.403 250.383 316.019 251.327 316.024 252.309Z" fill="#E0E0E0"/>
<path d="M398.742 305.988C398.746 306.722 398.968 307.438 399.38 308.046C399.792 308.654 400.374 309.126 401.054 309.403C401.734 309.679 402.481 309.748 403.2 309.6C403.919 309.452 404.578 309.093 405.093 308.571C405.608 308.048 405.957 307.384 406.095 306.663C406.233 305.942 406.153 305.196 405.867 304.52C405.581 303.844 405.101 303.268 404.487 302.866C403.873 302.463 403.154 302.251 402.42 302.257C401.438 302.266 400.499 302.663 399.81 303.363C399.121 304.062 398.737 305.006 398.742 305.988Z" fill="#E0E0E0"/>
<path d="M73.8686 25.3293H50.0547V120.044H73.8686V25.3293Z" fill="#EBEBEB"/>
<path d="M108.895 45.9851H85.0815V120.034H108.895V45.9851Z" fill="#EBEBEB"/>
<path d="M144.462 62.8994H120.648V120.034H144.462V62.8994Z" fill="#EBEBEB"/>
<path d="M177.391 86.1094H153.577V120.044H177.391V86.1094Z" fill="#E6E6E6"/>
<path d="M158.325 1.69556C158.325 1.69556 158.102 1.98171 157.668 2.49041L155.686 4.769L148.151 13.3535L120.977 44.0879L120.829 44.2469L120.659 44.1197L102.929 30.533H103.289L78.4894 61.9669L78.1927 62.3484L78.0125 62.5816L77.79 62.3802L44.3954 32.8857H44.7663C31.6565 50.097 20.5497 64.7966 12.6011 75.1933L3.34899 87.2857L0.879643 90.4651L0.233159 91.2812C0.161003 91.3776 0.083143 91.4696 0 91.5567C0.0602021 91.4533 0.127486 91.3542 0.201366 91.26L0.816049 90.4122L3.22182 87.1585L12.3468 74.9813L44.353 32.5254L44.5226 32.3028L44.7239 32.483L78.1609 61.9033H77.7582L78.0549 61.5218L102.886 30.109L103.045 29.9077L103.247 30.0666L120.945 43.6428H120.627L147.939 13.1521C151.235 9.49575 153.821 6.62367 155.591 4.67362L157.615 2.44802C158.081 1.91812 158.325 1.69556 158.325 1.69556Z" fill="#E6E6E6"/>
<path d="M154.393 23.6655C154.385 23.5047 154.403 23.3436 154.446 23.1886L154.711 21.8321C154.987 20.5709 155.358 18.8964 155.771 16.851C156.714 12.6117 158.05 6.82517 159.586 0.339139L159.925 0.65708L158.728 1.02801C152.083 3.07344 146.063 4.88572 141.697 6.17868L136.514 7.67301L135.094 8.05455C134.931 8.11527 134.759 8.14754 134.585 8.14993C134.737 8.06734 134.897 7.9999 135.062 7.94857L136.451 7.47165L141.58 5.80775C145.915 4.4194 151.924 2.54354 158.537 0.508708L159.735 0.148373L160.201 0L160.084 0.476911C158.611 6.99474 157.265 12.7601 156.206 16.9463C155.686 18.9706 155.262 20.6345 154.955 21.8851C154.807 22.4044 154.679 22.8495 154.584 23.2098C154.543 23.3703 154.479 23.5238 154.393 23.6655Z" fill="#E6E6E6"/>
<path d="M342.254 161.843C346.987 161.766 351.635 163.094 355.613 165.659C359.59 168.224 362.718 171.911 364.6 176.253C366.482 180.596 367.035 185.399 366.187 190.055C365.34 194.711 363.131 199.012 359.84 202.412C356.548 205.813 352.323 208.162 347.697 209.161C343.071 210.161 338.252 209.766 333.851 208.027C329.449 206.288 325.662 203.283 322.968 199.392C320.274 195.501 318.794 190.898 318.716 186.166C318.62 179.821 321.044 173.698 325.456 169.138C329.869 164.578 335.91 161.955 342.254 161.843ZM342.827 197.22C345.089 197.177 347.288 196.466 349.146 195.174C351.004 193.883 352.438 192.069 353.266 189.964C354.093 187.858 354.279 185.554 353.798 183.343C353.317 181.132 352.191 179.113 350.563 177.541C348.935 175.97 346.878 174.916 344.652 174.513C342.425 174.11 340.129 174.376 338.054 175.277C335.978 176.179 334.216 177.675 332.991 179.577C331.766 181.479 331.132 183.702 331.169 185.964C331.195 187.469 331.517 188.954 332.118 190.334C332.718 191.714 333.584 192.962 334.666 194.007C335.749 195.052 337.027 195.874 338.427 196.425C339.827 196.976 341.322 197.246 342.827 197.22Z" fill="#E0E0E0"/>
<path d="M342.212 158.865C349.349 158.763 356.235 161.495 361.36 166.462C366.486 171.428 369.433 178.224 369.556 185.361L353.234 185.784C353.129 178.694 348.328 175.812 342.636 175.451C341.238 175.368 339.837 175.574 338.522 176.058C337.208 176.543 336.007 177.294 334.997 178.264C333.986 179.235 333.188 180.404 332.651 181.698C332.115 182.992 331.852 184.384 331.879 185.784L315.728 186.219C315.617 179.081 318.344 172.191 323.31 167.062C328.276 161.933 335.075 158.985 342.212 158.865Z" fill="#F0F0F0"/>
<path d="M148.479 267.294C156.718 258.649 168.021 253.583 179.957 253.187C191.892 252.791 203.507 257.095 212.301 265.175C216.621 269.156 220.108 273.956 222.559 279.295C225.011 284.634 226.378 290.406 226.582 296.278C226.786 302.149 225.823 308.002 223.748 313.499C221.673 318.995 218.528 324.025 214.495 328.297C206.256 336.942 194.953 342.008 183.017 342.404C171.082 342.801 159.467 338.496 150.673 330.417C146.353 326.435 142.866 321.636 140.415 316.297C137.963 310.958 136.596 305.185 136.392 299.314C136.188 293.442 137.151 287.589 139.226 282.092C141.301 276.596 144.446 271.566 148.479 267.294ZM197.23 312.379C199.164 310.337 200.672 307.931 201.667 305.301C202.661 302.671 203.123 299.87 203.024 297.06C202.926 294.25 202.269 291.487 201.092 288.933C199.916 286.38 198.243 284.086 196.171 282.185C191.961 278.326 186.405 276.275 180.698 276.473C174.991 276.671 169.59 279.103 165.659 283.244C163.725 285.286 162.217 287.692 161.223 290.322C160.228 292.952 159.766 295.753 159.865 298.563C159.964 301.373 160.62 304.136 161.797 306.69C162.974 309.243 164.647 311.537 166.719 313.438C170.928 317.306 176.489 319.363 182.202 319.165C187.915 318.966 193.321 316.529 197.252 312.379H197.23Z" fill="#F5F5F5"/>
<path d="M148.479 267.294C156.718 258.649 168.021 253.583 179.956 253.187C191.892 252.791 203.506 257.095 212.301 265.175L196.213 282.216C192.003 278.358 186.447 276.307 180.74 276.505C175.033 276.703 169.632 279.135 165.701 283.276C163.767 285.318 162.259 287.724 161.265 290.354C160.27 292.983 159.808 295.785 159.907 298.595C160.006 301.405 160.662 304.168 161.839 306.721C163.016 309.275 164.689 311.569 166.761 313.47L150.651 330.448C146.328 326.465 142.839 321.662 140.387 316.32C137.934 310.977 136.567 305.201 136.365 299.325C136.163 293.45 137.13 287.593 139.209 282.095C141.289 276.596 144.44 271.565 148.479 267.294Z" fill="#E0E0E0"/>
<path d="M210.457 257.852C232.713 278.444 235.416 311.902 214.591 333.988L191.985 314.498C201.936 303.953 204.098 289.868 193.447 280.023L210.457 257.852Z" fill="#EBEBEB"/>
<path d="M189.632 315.897L203.06 342.456C208.612 340.421 213.615 337.123 217.674 332.822L193.553 313.343L189.632 315.897Z" fill="#E0E0E0"/>
<path d="M240.29 70.7423C240.095 58.8376 243.434 47.1423 249.887 37.1361C256.339 27.1298 265.614 19.2621 276.539 14.5283C287.464 9.79444 299.547 8.40724 311.261 10.5421C322.974 12.677 333.791 18.2381 342.343 26.5218C350.895 34.8055 356.798 45.4396 359.306 57.0789C361.813 68.7182 360.812 80.8397 356.429 91.9098C352.046 102.98 344.478 112.501 334.682 119.27C324.887 126.038 313.304 129.749 301.399 129.933C285.454 130.159 270.07 124.057 258.616 112.963C247.162 101.868 240.572 86.686 240.29 70.7423ZM329.24 69.3115C329.147 63.6217 327.369 58.0872 324.131 53.4078C320.893 48.7284 316.34 45.1143 311.047 43.0224C305.755 40.9305 299.962 40.4548 294.399 41.6555C288.837 42.8561 283.755 45.6792 279.797 49.7678C275.839 53.8563 273.182 59.0267 272.162 64.6252C271.142 70.2236 271.806 75.9988 274.068 81.2204C276.33 86.442 280.09 90.8755 284.872 93.9605C289.654 97.0454 295.243 98.6431 300.933 98.5516C308.562 98.4206 315.827 95.2682 321.134 89.7862C326.441 84.3042 329.356 76.9407 329.24 69.3115Z" fill="#FAFAFA"/>
<path d="M240.291 70.7424C240.05 54.7871 246.149 39.388 257.25 27.9252C268.352 16.4624 283.547 9.87255 299.502 9.60205L300.011 41.0042C292.38 41.1265 285.109 44.2752 279.8 49.7578C274.49 55.2404 271.576 62.6077 271.698 70.239C271.82 77.8703 274.969 85.1405 280.452 90.4501C285.934 95.7598 293.302 98.6741 300.933 98.5518L301.399 129.933C285.453 130.165 270.065 124.065 258.61 112.969C247.155 101.873 240.567 86.688 240.291 70.7424Z" fill="#E0E0E0"/>
<path d="M294.097 4.76937C332.917 4.14408 363.896 34.1367 364.51 72.9575L327.767 73.551C327.47 54.9831 313.279 43.2934 294.722 43.6008L294.097 4.76937Z" fill="#F0F0F0"/>
<path d="M364.988 428.724C364.988 428.873 285.746 429 188 429C90.2536 429 11.0117 428.873 11.0117 428.724C11.0117 428.576 90.2324 428.438 188 428.438C285.767 428.438 364.988 428.565 364.988 428.724Z" fill="#263238"/>
<path d="M119.61 281.771L315.992 280.362V283.117L119.61 284.877V281.771Z" fill="#455966"/>
<path d="M115.328 82.1142L119.801 283.414L315.992 281.888V78.7334L115.328 82.1142Z" fill="white"/>
<path d="M115.328 82.1139L315.992 78.5H316.236V78.7438C316.236 136.895 316.236 205.518 316.236 278.73V282.174H315.961L119.769 283.668H119.536V283.435C117.003 162.787 115.349 84.1912 115.296 82.1245C115.296 84.1594 117.183 162.787 120.002 283.414L119.769 283.181L315.961 281.623L315.685 281.899V278.719C315.685 205.508 315.685 136.885 315.685 78.7332L315.929 78.9769L115.328 82.1139Z" fill="#455966"/>
<path d="M114.544 83.4599L316.851 82.3047L317.105 73.8157L114.544 75.0768V83.4599Z" fill="#455966"/>
<path d="M211.39 288.904C211.05 288.904 210.69 287.325 210.595 285.354C210.499 283.382 210.711 281.771 211.05 281.75C211.39 281.729 211.75 283.319 211.845 285.29C211.941 287.261 211.739 288.904 211.39 288.904Z" fill="#455966"/>
<path d="M211.315 287.452C211.315 287.378 211.654 287.357 212.184 287.569C212.504 287.703 212.804 287.882 213.074 288.098C213.439 288.392 213.745 288.751 213.975 289.158C214.29 289.721 214.448 290.359 214.433 291.003C214.418 291.648 214.23 292.277 213.89 292.825C213.687 293.156 213.429 293.449 213.127 293.694C212.813 293.947 212.453 294.138 212.068 294.256C211.248 294.482 210.376 294.419 209.598 294.076C209.205 293.901 208.846 293.657 208.538 293.355C208.233 293.053 207.991 292.693 207.828 292.295C207.535 291.573 207.472 290.777 207.648 290.017C207.778 289.383 208.084 288.799 208.53 288.331C208.976 287.862 209.544 287.529 210.171 287.367C210.972 287.148 211.825 287.223 212.576 287.579C213.085 287.834 213.276 288.098 213.233 288.162C213.191 288.226 212.905 288.162 212.417 288.035C211.754 287.911 211.069 287.97 210.435 288.204C210.028 288.363 209.664 288.618 209.376 288.946C209.045 289.334 208.829 289.806 208.752 290.31C208.675 290.814 208.741 291.329 208.941 291.797C209.172 292.301 209.585 292.698 210.096 292.91C210.606 293.138 211.177 293.186 211.718 293.048C212.215 292.919 212.646 292.609 212.926 292.179C213.202 291.773 213.367 291.301 213.403 290.812C213.435 290.59 213.435 290.365 213.403 290.144C213.368 289.936 213.308 289.733 213.223 289.54C212.951 288.916 212.524 288.373 211.983 287.961C211.591 287.685 211.315 287.537 211.315 287.452Z" fill="#455966"/>
<path d="M240.502 192.271C240.502 192.271 240.502 192.271 240.375 192.271H240.014L238.616 192.334L233.221 192.567L213.381 193.309C196.626 193.924 173.469 194.74 147.906 195.62L139.11 195.916H138.909V195.715C137.128 172.325 135.517 151.362 134.404 136.291C133.853 128.767 133.419 122.715 133.112 118.55C132.974 116.431 132.857 114.852 132.783 113.76C132.783 113.209 132.719 112.796 132.709 112.509C132.698 112.223 132.709 112.266 132.709 112.191C132.709 112.117 132.709 112.085 132.709 112.085C132.714 112.121 132.714 112.156 132.709 112.191C132.709 112.266 132.709 112.372 132.709 112.509C132.709 112.647 132.772 113.209 132.825 113.749C132.91 114.809 133.048 116.452 133.228 118.54C133.557 122.705 134.044 128.756 134.648 136.26C135.835 151.288 137.467 172.198 139.269 195.683L139.057 195.492L147.853 195.185C173.416 194.316 196.605 193.542 213.328 193.012L233.179 192.398L238.573 192.249H239.972H240.46L240.502 192.271Z" fill="#455A64"/>
<path d="M169.463 105.568V108.27L197.421 106.935V104.667L169.463 105.568Z" fill="#455966"/>
<path d="M148.299 189.96H158.017L156.491 163.582H146.963L148.299 189.96Z" fill="#4F4879"/>
<path d="M165.913 189.971H175.621L174.105 153.1H164.578L165.913 189.971Z" fill="#4F4879"/>
<path d="M182.403 188.794H192.122L190.596 140.52H181.079L182.403 188.794Z" fill="#4F4879"/>
<path d="M220.239 186.918H229.947L228.431 121.125H218.903L220.239 186.918Z" fill="#4F4879"/>
<path d="M201.829 187.141H211.537L210.011 130.526H200.494L201.829 187.141Z" fill="#4F4879"/>
<path d="M142.195 156.746C141.94 156.354 159.3 144.781 180.952 130.897C202.604 117.014 220.387 106.076 220.642 106.521C220.896 106.967 203.536 118.487 181.874 132.37C160.211 146.254 142.428 157.138 142.195 156.746Z" fill="#4F4879"/>
<path d="M211.029 106.479C210.944 106.013 217.229 104.444 225.092 102.961L227.085 102.59L225.951 104.275L225.887 104.37C221.394 111.047 217.409 116.251 217.038 116.028C216.667 115.805 219.984 110.146 224.456 103.459L224.52 103.363L225.389 104.677C217.536 106.108 211.113 106.935 211.029 106.479Z" fill="#4F4879"/>
<path d="M146.963 198.873H157.116L157.434 200.675H146.963V198.873Z" fill="#455966"/>
<path d="M164.938 198.131H175.091L175.409 199.933H164.938V198.131Z" fill="#455966"/>
<path d="M183.442 197.601H193.595L193.913 199.403H183.442V197.601Z" fill="#455966"/>
<path d="M200.781 197.167H210.934L211.252 198.979H200.781V197.167Z" fill="#455966"/>
<path d="M222.263 196.531H232.416L232.734 198.343H222.263V196.531Z" fill="#455966"/>
<path d="M267.803 268.365C285.702 268.365 300.212 253.855 300.212 235.956C300.212 218.057 285.702 203.547 267.803 203.547C249.904 203.547 235.394 218.057 235.394 235.956C235.394 253.855 249.904 268.365 267.803 268.365Z" fill="#8579CB"/>
<path opacity="0.3" d="M267.803 268.365C285.702 268.365 300.212 253.855 300.212 235.956C300.212 218.057 285.702 203.547 267.803 203.547C249.904 203.547 235.394 218.057 235.394 235.956C235.394 253.855 249.904 268.365 267.803 268.365Z" fill="black"/>
<path d="M267.803 235.913L236.188 243.025C231.101 219.709 249.902 203.504 267.803 203.504" fill="#8579CB"/>
<path d="M267.845 235.913L267.633 203.504C291.5 203.504 303.328 225.326 299.512 242.813L267.845 235.913Z" fill="#8579CB"/>
<path d="M267.845 235.913L267.633 203.504C291.5 203.504 303.328 225.326 299.512 242.813L267.845 235.913Z" fill="#8579CB"/>
<path opacity="0.1" d="M267.845 235.913L267.633 203.504C291.5 203.504 303.328 225.326 299.512 242.813L267.845 235.913Z" fill="black"/>
<path d="M301.049 159.215C300.42 158.794 299.749 158.439 299.046 158.155C297.089 157.556 294.989 157.616 293.069 158.325C290.589 159.098 288.13 161.07 285.746 163.539C283.361 166.008 280.807 168.997 277.076 170.746C275.277 171.64 273.25 171.976 271.258 171.71C269.461 171.337 267.724 170.717 266.097 169.866C264.665 169.12 263.134 168.581 261.55 168.266C260.173 168.05 258.762 168.226 257.481 168.774C255.594 169.575 254.052 171.016 253.125 172.844C252.827 173.531 252.582 174.239 252.394 174.964C252.427 174.197 252.61 173.444 252.934 172.749C253.821 170.819 255.381 169.278 257.322 168.414C258.651 167.822 260.119 167.613 261.561 167.81C263.197 168.114 264.781 168.649 266.266 169.4C267.851 170.222 269.541 170.821 271.29 171.18C273.175 171.415 275.088 171.091 276.79 170.248C280.372 168.573 282.884 165.606 285.332 163.179C287.781 160.752 290.314 158.706 292.889 157.954C294.889 157.256 297.067 157.256 299.068 157.954C299.601 158.159 300.104 158.438 300.562 158.78C300.742 158.905 300.905 159.051 301.049 159.215Z" fill="#455966"/>
<path d="M303.794 180.157C303.794 180.316 292.285 180.432 278.094 180.432C263.903 180.432 252.394 180.316 252.394 180.157C252.394 179.998 263.903 179.881 278.094 179.881C292.285 179.881 303.794 180.009 303.794 180.157Z" fill="#455966"/>
<path d="M300.932 180.157C300.784 180.157 300.657 173.607 300.657 165.521C300.657 157.435 300.784 150.896 300.932 150.896C301.081 150.896 301.208 157.445 301.208 165.521C301.208 173.597 301.091 180.157 300.932 180.157Z" fill="#455966"/>
<path d="M257.575 167.831C257.575 167.831 257.501 167.725 257.575 167.535C257.624 167.401 257.702 167.279 257.802 167.179C257.903 167.078 258.024 167 258.158 166.952C258.36 166.863 258.582 166.83 258.8 166.858C259.019 166.886 259.226 166.974 259.398 167.111C259.585 167.32 259.695 167.587 259.711 167.867C259.726 168.147 259.646 168.425 259.484 168.654C259.322 168.883 259.086 169.05 258.817 169.127C258.547 169.205 258.259 169.189 257.999 169.082C257.817 168.973 257.667 168.817 257.564 168.631C257.462 168.445 257.411 168.235 257.416 168.022C257.414 167.881 257.44 167.741 257.493 167.61C257.546 167.479 257.624 167.359 257.724 167.259C257.883 167.132 257.999 167.132 258.01 167.153C258.021 167.174 257.724 167.46 257.798 168.001C257.813 168.14 257.86 168.274 257.935 168.391C258.011 168.509 258.112 168.608 258.232 168.679C258.381 168.717 258.538 168.709 258.682 168.656C258.826 168.603 258.95 168.508 259.04 168.383C259.129 168.259 259.178 168.11 259.182 167.957C259.185 167.803 259.143 167.653 259.059 167.524C258.953 167.437 258.827 167.377 258.692 167.349C258.557 167.321 258.418 167.327 258.285 167.365C257.745 167.45 257.65 167.853 257.575 167.831Z" fill="#455966"/>
<path d="M292.232 157.201C292.232 157.201 292.232 157.074 292.422 156.968C292.669 156.844 292.954 156.822 293.217 156.905C293.426 156.962 293.616 157.075 293.765 157.231C293.915 157.388 294.019 157.583 294.065 157.795C294.081 158.068 294.005 158.339 293.849 158.564C293.692 158.788 293.465 158.954 293.203 159.033C292.941 159.113 292.66 159.102 292.405 159.002C292.15 158.903 291.936 158.72 291.797 158.484C291.721 158.279 291.701 158.058 291.74 157.844C291.78 157.629 291.876 157.429 292.02 157.265C292.199 157.053 292.454 156.92 292.73 156.894C292.921 156.894 293.016 156.958 293.005 156.989C292.995 157.021 292.603 157.042 292.338 157.498C292.264 157.612 292.219 157.741 292.204 157.875C292.189 158.009 292.206 158.145 292.253 158.272C292.346 158.386 292.471 158.47 292.612 158.513C292.754 158.556 292.904 158.556 293.045 158.513C293.187 158.469 293.312 158.385 293.404 158.27C293.497 158.156 293.554 158.016 293.567 157.869C293.539 157.737 293.48 157.614 293.396 157.509C293.311 157.404 293.203 157.32 293.08 157.265C292.613 157.032 292.285 157.276 292.232 157.201Z" fill="#455966"/>
<path d="M300.021 122.514C300.021 122.662 288.872 122.789 275.126 122.789C261.38 122.789 250.231 122.662 250.231 122.514C250.231 122.365 261.37 122.238 275.126 122.238C288.882 122.238 300.021 122.387 300.021 122.514Z" fill="#455966"/>
<path d="M300.021 129.456C300.021 129.615 288.872 129.731 275.126 129.731C261.38 129.731 250.231 129.615 250.231 129.456C250.231 129.297 261.37 129.18 275.126 129.18C288.882 129.18 300.021 129.307 300.021 129.456Z" fill="#455966"/>
<path d="M300.021 136.376C300.021 136.525 288.872 136.652 275.126 136.652C261.38 136.652 250.231 136.525 250.231 136.376C250.231 136.228 261.37 136.101 275.126 136.101C288.882 136.101 300.021 136.217 300.021 136.376Z" fill="#455966"/>
<path d="M300.021 143.286C300.021 143.445 288.872 143.562 275.126 143.562C261.38 143.562 250.231 143.445 250.231 143.286C250.231 143.127 261.37 143.01 275.126 143.01C288.882 143.01 300.021 143.138 300.021 143.286Z" fill="#455966"/>
<path d="M276.726 109.892H250.231V112.128H276.726V109.892Z" fill="#455966"/>
<path d="M167.355 220.917H140.859V223.153H167.355V220.917Z" fill="#455966"/>
<path d="M213.36 233.879C213.36 234.038 197.283 234.154 177.454 234.154C157.625 234.154 141.537 234.038 141.537 233.879C141.537 233.72 157.614 233.603 177.454 233.603C197.294 233.603 213.36 233.73 213.36 233.879Z" fill="#263238"/>
<path d="M213.785 240.153C213.785 240.301 197.421 240.428 177.242 240.428C157.064 240.428 140.7 240.301 140.7 240.153C140.7 240.004 157.053 239.877 177.242 239.877C197.432 239.877 213.785 240.025 213.785 240.153Z" fill="#263238"/>
<path d="M214.622 246.066C214.622 246.215 198.163 246.342 177.867 246.342C157.572 246.342 141.113 246.215 141.113 246.066C141.113 245.918 157.572 245.791 177.867 245.791C198.163 245.791 214.622 245.907 214.622 246.066Z" fill="#263238"/>
<path d="M179.34 252.362C179.34 252.51 170.862 252.637 160.434 252.637C150.005 252.637 141.537 252.51 141.537 252.362C141.537 252.213 150.016 252.086 160.434 252.086C170.851 252.086 179.34 252.213 179.34 252.362Z" fill="#263238"/>
<path d="M63.9274 423.924V414.386L45.9848 414.227L45.8364 428.248L46.8962 428.322C51.8455 428.629 72.0773 429.53 75.3945 428.555C79.1462 427.453 63.9274 423.924 63.9274 423.924Z" fill="#8579CB"/>
<path d="M75.8716 427.675C75.8716 427.845 69.163 427.983 60.8859 427.983C52.6088 427.983 45.8896 427.845 45.8896 427.675C45.8896 427.506 52.6088 427.368 60.8859 427.368C69.163 427.368 75.8716 427.506 75.8716 427.675Z" fill="#263238"/>
<path d="M64.2455 425.884C64.0971 425.799 64.2455 425.28 64.6059 424.824C64.9662 424.369 65.4643 424.072 65.5703 424.189C65.6763 424.305 65.4431 424.74 65.0934 425.248C64.7436 425.757 64.3939 425.969 64.2455 425.884Z" fill="#263238"/>
<path d="M65.39 426.509C65.2311 426.446 65.3158 425.874 65.6656 425.28C66.0153 424.687 66.4816 424.326 66.6088 424.432C66.736 424.538 66.524 425.036 66.1955 425.587C65.8669 426.139 65.549 426.573 65.39 426.509Z" fill="#263238"/>
<path d="M51.2841 427.612C51.2099 427.665 50.9344 427.41 50.5423 426.986C50.0649 426.432 49.5362 425.925 48.9631 425.471C48.3916 425.051 47.7256 424.778 47.0237 424.676C46.4832 424.602 46.1335 424.676 46.1017 424.591C46.0699 424.506 46.409 424.284 47.0343 424.241C47.8583 424.218 48.6658 424.476 49.3235 424.973C49.9504 425.453 50.4823 426.046 50.892 426.721C51.2205 427.22 51.3689 427.559 51.2841 427.612Z" fill="#263238"/>
<path d="M64.2982 424.082C64.383 424.22 64.0651 424.559 63.5564 424.74C63.0477 424.92 62.5919 424.856 62.5707 424.687C62.5495 424.517 62.8993 424.326 63.355 424.167C63.8107 424.008 64.2028 423.934 64.2982 424.082Z" fill="#263238"/>
<path d="M64.0019 423.15C64.0019 423.319 63.5356 423.468 62.9421 423.478C62.3486 423.489 61.8823 423.351 61.8823 423.182C61.8823 423.012 62.3698 422.874 62.9421 422.864C63.5144 422.853 64.0019 422.98 64.0019 423.15Z" fill="#8579CB"/>
<path d="M75.8716 427.675C75.8716 427.845 69.163 427.983 60.8859 427.983C52.6088 427.983 45.8896 427.845 45.8896 427.675C45.8896 427.506 52.6088 427.368 60.8859 427.368C69.163 427.368 75.8716 427.506 75.8716 427.675Z" fill="#263238"/>
<path d="M64.2455 425.884C64.0971 425.799 64.2455 425.28 64.6059 424.824C64.9662 424.369 65.4643 424.072 65.5703 424.189C65.6763 424.305 65.4431 424.74 65.0934 425.248C64.7436 425.757 64.3939 425.969 64.2455 425.884Z" fill="#263238"/>
<path d="M65.39 426.509C65.2311 426.446 65.3158 425.874 65.6656 425.28C66.0153 424.687 66.4816 424.326 66.6088 424.432C66.736 424.538 66.524 425.036 66.1955 425.587C65.8669 426.139 65.549 426.573 65.39 426.509Z" fill="#263238"/>
<path d="M51.2841 427.612C51.2099 427.665 50.9344 427.41 50.5423 426.986C50.0649 426.432 49.5362 425.925 48.9631 425.471C48.3916 425.051 47.7256 424.778 47.0237 424.676C46.4832 424.602 46.1335 424.676 46.1017 424.591C46.0699 424.506 46.409 424.284 47.0343 424.241C47.8583 424.218 48.6658 424.476 49.3235 424.973C49.9504 425.453 50.4823 426.046 50.892 426.721C51.2205 427.22 51.3689 427.559 51.2841 427.612Z" fill="#263238"/>
<path d="M64.2982 424.082C64.383 424.22 64.0651 424.559 63.5564 424.74C63.0477 424.92 62.5919 424.856 62.5707 424.687C62.5495 424.517 62.8993 424.326 63.355 424.167C63.8107 424.008 64.2028 423.934 64.2982 424.082Z" fill="#263238"/>
<path d="M64.0019 423.15C64.0019 423.319 63.5356 423.468 62.9421 423.478C62.3486 423.489 61.8823 423.351 61.8823 423.182C61.8823 423.012 62.3698 422.874 62.9421 422.864C63.5144 422.853 64.0019 422.98 64.0019 423.15Z" fill="#263238"/>
<path d="M82.8557 420.532L85.6854 411.386L68.5801 405.96L64.3408 419.303L65.4006 419.706C70.032 421.465 89.0979 428.311 92.5529 428.364C96.347 428.407 82.8557 420.532 82.8557 420.532Z" fill="#8579CB"/>
<path d="M93.1573 427.644C93.1573 427.813 86.6501 425.958 78.744 423.5C70.8378 421.041 64.4683 418.932 64.5213 418.773C64.5743 418.614 71.0179 420.469 78.9347 422.917C86.8515 425.365 93.2103 427.485 93.1573 427.644Z" fill="#263238"/>
<path d="M82.5803 422.493C82.4637 422.366 82.7392 421.921 83.2479 421.55C83.7566 421.179 84.3077 421.083 84.3607 421.232C84.4137 421.38 84.0746 421.719 83.6083 422.058C83.142 422.397 82.6968 422.609 82.5803 422.493Z" fill="#263238"/>
<path d="M83.481 423.436C83.3538 423.33 83.5975 422.8 84.1168 422.376C84.6361 421.952 85.1767 421.709 85.272 421.846C85.3674 421.984 85.0071 422.398 84.5302 422.832C84.0532 423.267 83.6187 423.5 83.481 423.436Z" fill="#263238"/>
<path d="M69.7039 420.32C69.6191 420.32 69.4389 420.034 69.1952 419.504C68.904 418.836 68.5491 418.197 68.1354 417.597C67.7146 417.027 67.1617 416.569 66.5245 416.261C66.0263 416.039 65.666 415.996 65.666 415.911C65.666 415.827 66.0475 415.699 66.6622 415.848C67.4527 416.072 68.1438 416.558 68.6229 417.226C69.0767 417.867 69.4106 418.585 69.6085 419.345C69.7463 419.917 69.7781 420.32 69.7039 420.32Z" fill="#455A64"/>
<path d="M83.1633 420.786C83.1633 420.945 82.8029 421.178 82.2624 421.2C81.7219 421.221 81.298 421.02 81.3298 420.85C81.3616 420.68 81.7643 420.606 82.2412 420.585C82.7182 420.564 83.0785 420.617 83.1633 420.786Z" fill="#263238"/>
<path d="M83.1631 419.822C83.1631 419.981 82.6332 419.981 82.0503 419.822C81.4674 419.663 81.0541 419.377 81.1071 419.218C81.1601 419.059 81.6688 419.069 82.2199 419.218C82.771 419.366 83.2055 419.652 83.1631 419.822Z" fill="#263238"/>
<path d="M95.0331 234.461L71.4842 232.649L35.811 229.756L39.7959 421.38L70.7741 420.977C70.7741 420.977 70.7741 418.858 70.6999 415.106L88.8651 420.076C88.8651 420.076 106.564 360.282 112.594 335.747C117.628 315.304 95.0331 234.461 95.0331 234.461ZM70.3608 385.346C69.8945 341.11 69.354 265.885 70.0005 256.686C70.0005 256.686 87.2542 322.913 87.4131 328.138C87.5191 331.296 77.9066 361.861 70.3608 385.346Z" fill="#455A64"/>
<path d="M70.9433 413.718C70.9433 413.887 64.0122 414.025 55.4701 414.025C46.9281 414.025 39.9863 413.887 39.9863 413.718C39.9863 413.548 46.9175 413.41 55.4701 413.41C64.0228 413.41 70.9433 413.548 70.9433 413.718Z" fill="#455A64"/>
<path d="M70.6675 406.829C71.6365 407.059 72.5861 407.363 73.5078 407.74L80.5979 410.21L87.688 412.69C88.6907 412.976 89.6632 413.36 90.5919 413.834C89.5566 413.69 88.5379 413.445 87.5502 413.103C85.7062 412.562 83.1732 411.757 80.3965 410.793C77.6198 409.828 75.0975 408.874 73.3594 408.143C72.4056 407.832 71.4996 407.389 70.6675 406.829Z" fill="#455A64"/>
<path d="M99.0496 327.545C97.1336 327.991 95.1768 328.24 93.2101 328.287C91.2594 328.536 89.2883 328.582 87.3281 328.424C89.2429 327.97 91.2002 327.718 93.1677 327.672C95.1184 327.423 97.09 327.38 99.0496 327.545Z" fill="#455A64"/>
<path d="M97.0254 331.02C95.5019 330.892 94.0018 330.564 92.5636 330.045C91.0667 329.719 89.6198 329.195 88.2607 328.488C89.7886 328.603 91.2933 328.928 92.7331 329.452C95.1495 330.151 97.0784 330.851 97.0254 331.02Z" fill="#455A64"/>
<path d="M72.8513 232.893C72.9937 234.103 73.0468 235.321 73.0103 236.539C73.0103 238.796 73.0103 241.912 73.0103 245.356C73.0103 247.063 73.0103 248.695 72.9467 250.2C72.9855 251.555 72.7325 252.904 72.2048 254.153C71.8289 255.004 71.228 255.737 70.4668 256.272C70.2072 256.488 69.8972 256.634 69.5659 256.696C69.5659 256.696 69.8627 256.506 70.3396 256.103C71.0088 255.529 71.5288 254.802 71.8551 253.983C72.297 252.769 72.4951 251.48 72.438 250.189C72.438 248.674 72.438 247.01 72.438 245.335C72.438 241.891 72.5228 238.775 72.5864 236.528C72.583 235.312 72.6715 234.096 72.8513 232.893Z" fill="#455A64"/>
<path d="M55.1204 231.812C55.1318 231.967 55.1318 232.123 55.1204 232.278C55.1204 232.617 55.1204 233.073 55.1204 233.656C55.1204 234.885 55.025 236.666 54.9508 238.955C54.8024 243.565 54.5905 250.189 54.3255 258.36C53.8274 274.745 53.3187 297.393 53.1915 322.394C53.0643 347.395 53.3505 370.085 53.679 386.459C53.8592 394.63 53.997 401.297 54.1029 405.864C54.1029 408.143 54.1877 409.913 54.2195 411.163C54.2195 411.746 54.2195 412.223 54.2195 412.541C54.2309 412.696 54.2309 412.852 54.2195 413.008C54.2081 412.852 54.2081 412.696 54.2195 412.541C54.2195 412.213 54.2195 411.757 54.1453 411.174C54.1453 409.934 54.0288 408.164 53.9334 405.875C53.7532 401.297 53.5412 394.662 53.3293 386.47C52.8948 370.075 52.5556 347.427 52.6828 322.394C52.81 297.361 53.3823 274.702 53.9758 258.35C54.2725 250.157 54.5481 243.512 54.7812 238.945C54.8978 236.677 54.9932 234.907 55.0568 233.645C55.0568 233.063 55.1204 232.586 55.1416 232.268C55.1236 232.117 55.1165 231.964 55.1204 231.812Z" fill="#455A64"/>
<path d="M87.3179 236.634C87.3822 236.774 87.4354 236.92 87.4769 237.069C87.5722 237.387 87.71 237.81 87.8796 238.362C88.2187 239.496 88.7592 241.17 89.3527 243.353C90.5715 247.709 92.2142 254.036 94.0477 261.91C95.8812 269.785 97.916 279.175 100.036 289.646C102.155 300.117 104.391 311.647 106.394 323.814C106.649 325.34 106.882 326.856 107.083 328.371C107.083 328.774 107.158 329.187 107.158 329.579L106.967 330.703C106.829 331.455 106.723 332.208 106.553 332.939C105.949 335.885 105.271 338.768 104.54 341.587C103.098 347.225 101.572 352.619 100.067 357.749C97.0787 368.008 94.196 377.186 91.7479 384.891C89.2997 392.596 87.2543 398.795 85.813 403.077L84.1385 408.005L83.6828 409.287C83.6432 409.435 83.5863 409.577 83.5132 409.711C83.5409 409.56 83.5798 409.412 83.6298 409.266C83.7357 408.948 83.8629 408.524 84.0325 407.973L85.6116 403.013L91.377 384.774C93.7721 377.059 96.6124 367.87 99.5799 357.611C101.064 352.482 102.579 347.077 104.02 341.449C104.741 338.641 105.419 335.769 106.024 332.833C106.193 332.102 106.288 331.36 106.416 330.618L106.606 329.505C106.606 329.145 106.553 328.795 106.532 328.445C106.331 326.951 106.108 325.435 105.854 323.92C103.84 311.764 101.615 300.233 99.4951 289.762C97.3755 279.291 95.4572 269.827 93.6767 261.995C91.8963 254.163 90.296 247.773 89.1408 243.406C88.5897 241.223 88.0809 239.538 87.7736 238.393L87.4239 237.09C87.3718 236.942 87.3363 236.789 87.3179 236.634Z" fill="#455A64"/>
<path d="M70.2654 381.457C70.3507 381.95 70.3827 382.451 70.3607 382.951C70.3607 384.011 70.3608 385.4 70.4137 387.042C70.4137 390.593 70.5409 395.309 70.6151 400.512C70.6893 405.716 70.8906 410.432 70.986 413.983C70.986 415.625 71.0708 417.003 71.1026 418.073C71.1505 418.57 71.1505 419.071 71.1026 419.568C70.9857 419.082 70.9217 418.584 70.9119 418.084C70.8271 417.12 70.7317 415.731 70.6257 414.004C70.4137 410.559 70.2124 405.79 70.0958 400.523C69.9792 395.256 70.0004 390.487 70.0958 387.042C70.0958 385.315 70.17 383.863 70.2124 382.951C70.1909 382.453 70.2086 381.953 70.2654 381.457Z" fill="#455A64"/>
<path d="M95.0331 234.461L71.4842 232.649L35.811 229.756L39.7959 421.38L70.7741 420.977C70.7741 420.977 70.7741 418.858 70.6999 415.106L88.8651 420.076C88.8651 420.076 106.564 360.282 112.594 335.747C117.628 315.304 95.0331 234.461 95.0331 234.461ZM70.3608 385.346C69.8945 341.11 69.354 265.885 70.0005 256.686C70.0005 256.686 87.2542 322.913 87.4131 328.138C87.5191 331.296 77.9066 361.861 70.3608 385.346Z" fill="#263238"/>
<path d="M70.9433 413.718C70.9433 413.887 64.0122 414.025 55.4701 414.025C46.9281 414.025 39.9863 413.887 39.9863 413.718C39.9863 413.548 46.9175 413.41 55.4701 413.41C64.0228 413.41 70.9433 413.548 70.9433 413.718Z" fill="#455A64"/>
<path d="M70.6675 406.829C71.6365 407.059 72.5861 407.363 73.5078 407.74L80.5979 410.21L87.688 412.69C88.6907 412.976 89.6632 413.36 90.5919 413.834C89.5566 413.69 88.5379 413.445 87.5502 413.103C85.7062 412.562 83.1732 411.757 80.3965 410.793C77.6198 409.828 75.0975 408.874 73.3594 408.143C72.4056 407.832 71.4996 407.389 70.6675 406.829Z" fill="#455A64"/>
<path d="M99.0496 327.545C97.1336 327.991 95.1768 328.24 93.2101 328.287C91.2594 328.536 89.2883 328.582 87.3281 328.424C89.2429 327.97 91.2002 327.718 93.1677 327.672C95.1184 327.423 97.09 327.38 99.0496 327.545Z" fill="#455A64"/>
<path d="M97.0254 331.02C95.5019 330.892 94.0018 330.564 92.5636 330.045C91.0667 329.719 89.6198 329.195 88.2607 328.488C89.7886 328.603 91.2933 328.928 92.7331 329.452C95.1495 330.151 97.0784 330.851 97.0254 331.02Z" fill="#455A64"/>
<path d="M72.8513 232.893C72.9937 234.103 73.0468 235.321 73.0103 236.539C73.0103 238.796 73.0103 241.912 73.0103 245.356C73.0103 247.063 73.0103 248.695 72.9467 250.2C72.9855 251.555 72.7325 252.904 72.2048 254.153C71.8289 255.004 71.228 255.737 70.4668 256.272C70.2072 256.488 69.8972 256.634 69.5659 256.696C69.5659 256.696 69.8627 256.506 70.3396 256.103C71.0088 255.529 71.5288 254.802 71.8551 253.983C72.297 252.769 72.4951 251.48 72.438 250.189C72.438 248.674 72.438 247.01 72.438 245.335C72.438 241.891 72.5228 238.775 72.5864 236.528C72.583 235.312 72.6715 234.096 72.8513 232.893Z" fill="#455A64"/>
<path d="M55.1204 231.812C55.1318 231.967 55.1318 232.123 55.1204 232.278C55.1204 232.617 55.1204 233.073 55.1204 233.656C55.1204 234.885 55.025 236.666 54.9508 238.955C54.8024 243.565 54.5905 250.189 54.3255 258.36C53.8274 274.745 53.3187 297.393 53.1915 322.394C53.0643 347.395 53.3505 370.085 53.679 386.459C53.8592 394.63 53.997 401.297 54.1029 405.864C54.1029 408.143 54.1877 409.913 54.2195 411.163C54.2195 411.746 54.2195 412.223 54.2195 412.541C54.2309 412.696 54.2309 412.852 54.2195 413.008C54.2081 412.852 54.2081 412.696 54.2195 412.541C54.2195 412.213 54.2195 411.757 54.1453 411.174C54.1453 409.934 54.0288 408.164 53.9334 405.875C53.7532 401.297 53.5412 394.662 53.3293 386.47C52.8948 370.075 52.5556 347.427 52.6828 322.394C52.81 297.361 53.3823 274.702 53.9758 258.35C54.2725 250.157 54.5481 243.512 54.7812 238.945C54.8978 236.677 54.9932 234.907 55.0568 233.645C55.0568 233.063 55.1204 232.586 55.1416 232.268C55.1236 232.117 55.1165 231.964 55.1204 231.812Z" fill="#455A64"/>
<path d="M87.3179 236.634C87.3822 236.774 87.4354 236.92 87.4769 237.069C87.5722 237.387 87.71 237.81 87.8796 238.362C88.2187 239.496 88.7592 241.17 89.3527 243.353C90.5715 247.709 92.2142 254.036 94.0477 261.91C95.8812 269.785 97.916 279.175 100.036 289.646C102.155 300.117 104.391 311.647 106.394 323.814C106.649 325.34 106.882 326.856 107.083 328.371C107.083 328.774 107.158 329.187 107.158 329.579L106.967 330.703C106.829 331.455 106.723 332.208 106.553 332.939C105.949 335.885 105.271 338.768 104.54 341.587C103.098 347.225 101.572 352.619 100.067 357.749C97.0787 368.008 94.196 377.186 91.7479 384.891C89.2997 392.596 87.2543 398.795 85.813 403.077L84.1385 408.005L83.6828 409.287C83.6432 409.435 83.5863 409.577 83.5132 409.711C83.5409 409.56 83.5798 409.412 83.6298 409.266C83.7357 408.948 83.8629 408.524 84.0325 407.973L85.6116 403.013L91.377 384.774C93.7721 377.059 96.6124 367.87 99.5799 357.611C101.064 352.482 102.579 347.077 104.02 341.449C104.741 338.641 105.419 335.769 106.024 332.833C106.193 332.102 106.288 331.36 106.416 330.618L106.606 329.505C106.606 329.145 106.553 328.795 106.532 328.445C106.331 326.951 106.108 325.435 105.854 323.92C103.84 311.764 101.615 300.233 99.4951 289.762C97.3755 279.291 95.4572 269.827 93.6767 261.995C91.8963 254.163 90.296 247.773 89.1408 243.406C88.5897 241.223 88.0809 239.538 87.7736 238.393L87.4239 237.09C87.3718 236.942 87.3363 236.789 87.3179 236.634Z" fill="#455A64"/>
<path d="M70.2654 381.457C70.3507 381.95 70.3827 382.451 70.3607 382.951C70.3607 384.011 70.3608 385.4 70.4137 387.042C70.4137 390.593 70.5409 395.309 70.6151 400.512C70.6893 405.716 70.8906 410.432 70.986 413.983C70.986 415.625 71.0708 417.003 71.1026 418.073C71.1505 418.57 71.1505 419.071 71.1026 419.568C70.9857 419.082 70.9217 418.584 70.9119 418.084C70.8271 417.12 70.7317 415.731 70.6257 414.004C70.4137 410.559 70.2124 405.79 70.0958 400.523C69.9792 395.256 70.0004 390.487 70.0958 387.042C70.0958 385.315 70.17 383.863 70.2124 382.951C70.1909 382.453 70.2086 381.953 70.2654 381.457Z" fill="#455A64"/>
<path d="M54.4638 142.492L72.4806 143.827C72.7244 141.707 73.0741 133.642 73.0741 133.642C73.0741 133.642 80.5881 132.953 81.1392 125.513C81.6903 118.074 81.4572 100.894 81.4572 100.894C77.3381 98.8122 72.7376 97.8687 68.1315 98.1612C63.5255 98.4538 59.0813 99.9717 55.2587 102.558L54.1035 103.342L54.4638 142.492Z" fill="#FFBE9D"/>
<path d="M73.031 133.536C69.5897 133.391 66.2695 132.225 63.4927 130.187C63.4927 130.187 65.4533 135.687 72.925 135.486L73.031 133.536Z" fill="#E7966B"/>
<path d="M55.5233 109.945C55.3538 109.881 49.9911 109.182 50.4998 115.519C51.0085 121.857 57.2402 119.239 57.2296 119.059C57.219 118.879 55.5233 109.945 55.5233 109.945Z" fill="#FFBE9D"/>
<path d="M81.9338 98.2125C82.3627 98.201 82.7833 98.0911 83.163 97.8911C83.5426 97.6911 83.8712 97.4065 84.1232 97.0592C84.3753 96.712 84.5441 96.3114 84.6167 95.8885C84.6892 95.4655 84.6635 95.0316 84.5415 94.6202C84.4195 94.2088 84.2045 93.831 83.9132 93.5159C83.6218 93.2009 83.2619 92.9571 82.8613 92.8034C82.4607 92.6497 82.0301 92.5902 81.6028 92.6295C81.1755 92.6688 80.7629 92.8058 80.3971 93.03C81.2834 92.2943 82.0055 91.3809 82.5167 90.3487C82.7639 89.8281 82.8457 89.2443 82.751 88.6758C82.6562 88.1073 82.3895 87.5815 81.9868 87.1693C81.5204 86.8607 80.9809 86.6806 80.4227 86.6471C79.8645 86.6136 79.3073 86.7279 78.8074 86.9785C77.2282 87.6568 75.9777 88.9922 74.3562 89.5539C72.7347 90.1156 70.9224 89.84 69.1843 89.9142C67.234 89.949 65.3451 90.6021 63.7899 91.7795C62.4646 92.8207 61.607 94.3455 61.4053 96.0187C61.197 95.7327 60.9667 95.4634 60.7164 95.2133C59.8922 94.2295 58.7802 93.529 57.537 93.2102C57.4628 93.348 58.9147 94.1534 60.3031 95.5948C60.6811 95.9564 61.0351 96.3423 61.3629 96.75C58.9465 96.4532 56.2864 96.432 54.3788 97.937C53.6059 98.6258 52.9951 99.4772 52.5902 100.43C52.1853 101.383 51.9962 102.413 52.0366 103.448C52.0366 105.504 52.8844 107.465 53.4885 109.436C53.6346 109.994 53.8865 110.52 54.2304 110.983L55.1418 116.282L58.459 116.219L58.2471 105.101C58.2471 105.101 57.9079 100.417 61.9352 100.862C65.9625 101.307 71.4735 105.811 79.2949 104.667C80.5782 104.595 81.8285 104.233 82.9512 103.607C83.4946 103.263 83.9363 102.78 84.2307 102.208C84.525 101.636 84.6614 100.996 84.6257 100.353C84.5486 99.7142 84.2228 99.1312 83.719 98.7306C83.2152 98.3299 82.5738 98.1438 81.9338 98.2125Z" fill="#263238"/>
<path d="M149.337 153.079L149.825 149.709C150.323 147.865 150.635 145.976 150.757 144.07C150.837 143.123 150.751 142.169 150.503 141.251C150.253 140.096 149.839 138.983 149.274 137.945C148.659 137.044 149.464 135.825 150.333 136.196C151.202 136.567 153.015 138.962 153.598 142.417C154.181 145.872 156.904 141.082 157.922 139.354C158.939 137.627 162.362 132.423 163.147 132.317C164.291 132.158 164.673 133.377 163.602 135.062C162.532 136.747 159.713 142.099 160.656 142.587C161.362 142.474 162.084 142.51 162.776 142.693C162.887 142.725 162.986 142.792 163.058 142.883C163.13 142.974 163.172 143.085 163.178 143.201C163.174 143.736 163.231 144.269 163.348 144.791C163.348 144.791 164.736 144.473 165.022 145.077C165.216 145.698 165.305 146.346 165.287 146.996C165.287 146.996 166.347 146.635 166.856 146.996C167.916 147.854 166.559 149.327 166.559 149.327C163.438 153.049 160.086 156.571 156.523 159.872L149.221 152.835" fill="#FFBE9D"/>
<path d="M162.925 145.024C162.613 145.679 162.194 146.278 161.685 146.794C161.261 147.303 160.731 147.854 160.106 148.522C159.78 148.869 159.425 149.188 159.046 149.475C158.812 149.661 158.53 149.776 158.233 149.806C157.937 149.836 157.637 149.78 157.371 149.645C157.226 149.56 157.103 149.442 157.013 149.3C156.923 149.158 156.868 148.996 156.852 148.829C156.831 148.53 156.897 148.232 157.043 147.971C157.304 147.577 157.587 147.198 157.891 146.837C158.431 146.158 158.876 145.522 159.247 144.971C159.603 144.348 160.011 143.756 160.466 143.201C160.289 143.906 159.988 144.574 159.576 145.173C159.191 145.854 158.766 146.512 158.304 147.144C158.023 147.482 157.761 147.836 157.52 148.204C157.329 148.553 157.34 148.988 157.647 149.147C157.82 149.22 158.009 149.246 158.195 149.221C158.382 149.197 158.558 149.124 158.707 149.009C159.059 148.743 159.391 148.452 159.703 148.14C160.339 147.547 160.89 146.985 161.346 146.508C161.82 145.961 162.349 145.464 162.925 145.024Z" fill="#E7966B"/>
<path d="M164.779 147.197C164.467 147.762 164.067 148.274 163.592 148.712C163.114 149.225 162.592 149.697 162.034 150.122C161.699 150.375 161.345 150.602 160.974 150.8C160.754 150.911 160.518 150.986 160.275 151.023C160.128 151.047 159.977 151.039 159.833 151.001C159.688 150.963 159.554 150.894 159.438 150.8C159.242 150.598 159.118 150.337 159.086 150.057C159.053 149.777 159.114 149.495 159.258 149.253C159.472 148.875 159.724 148.52 160.01 148.193C160.476 147.653 160.911 147.133 161.345 146.614C162.119 145.724 162.628 145.204 162.691 145.247C162.412 145.829 162.055 146.37 161.632 146.858L160.445 148.543C160.194 148.843 159.967 149.162 159.766 149.497C159.684 149.632 159.647 149.789 159.658 149.947C159.669 150.104 159.729 150.254 159.83 150.376C160.021 150.556 160.423 150.482 160.773 150.313C161.121 150.133 161.457 149.931 161.78 149.709C162.331 149.316 162.858 148.891 163.359 148.437C163.78 147.967 164.257 147.551 164.779 147.197Z" fill="#E7966B"/>
<path d="M165.214 150.228C165.267 150.228 165.214 150.705 164.716 151.288C164.565 151.468 164.379 151.617 164.17 151.724C163.96 151.831 163.731 151.896 163.497 151.913C163.193 151.916 162.898 151.815 162.66 151.627C162.528 151.517 162.423 151.379 162.351 151.223C162.28 151.067 162.244 150.898 162.246 150.726C162.33 150.186 162.549 149.676 162.882 149.242C163.106 148.893 163.35 148.556 163.613 148.236C164.069 147.684 164.398 147.398 164.461 147.451C164.525 147.504 164.292 147.865 163.931 148.511C163.719 148.882 163.507 149.221 163.317 149.571C163.061 149.945 162.885 150.367 162.797 150.811C162.805 150.991 162.883 151.161 163.013 151.285C163.143 151.409 163.317 151.479 163.497 151.479C163.849 151.467 164.184 151.328 164.44 151.086C164.917 150.578 165.139 150.186 165.214 150.228Z" fill="#E7966B"/>
<path d="M148.543 148.702C148.543 148.702 120.744 176.056 116.844 176.257C112.392 176.469 98.6997 157.053 98.6997 157.053C89.9351 143.53 78.3726 141.347 74.1545 141.008V139.333L53.4353 137.638C53.4353 137.638 53.4353 139.418 53.4353 140.976H44.2891C44.2891 140.976 27.8621 140.224 25.4033 162.289L37.2096 171.626L42.0529 189.643C43.738 195.917 37.7183 205.911 34.8462 222.094C34.4033 224.792 34.8536 227.56 36.1286 229.979L95.9548 236.857L92.7754 191.116L91.8109 180.518C96.7391 187.247 105.588 196.764 116.43 196.552C134.924 196.203 160.614 157.34 160.614 157.34L148.543 148.702Z" fill="#8579CB"/>
<path d="M67.1809 139.036C67.2836 139.977 67.2836 140.926 67.1809 141.866C67.0263 144.221 66.7076 146.561 66.2271 148.871L66.1529 149.221L65.8349 149.052C65.1142 148.67 64.3618 148.267 63.5987 147.822C60.6313 146.074 58.0983 144.272 56.1801 143.021C55.1445 142.391 54.1466 141.701 53.1914 140.955C53.5086 141.047 53.8117 141.183 54.0922 141.357C54.6433 141.665 55.4382 142.11 56.392 142.693C58.3209 143.859 60.8856 145.618 63.8107 147.345C64.5526 147.78 65.2944 148.193 66.0151 148.575L65.623 148.755C66.2376 146.021 66.5344 143.572 66.757 141.834C66.8415 140.894 66.9831 139.96 67.1809 139.036Z" fill="#4F4879"/>
<path d="M74.219 141.124C74.0858 142.035 73.8875 142.934 73.6255 143.816C73.4241 144.653 73.2122 145.65 72.8518 146.731C72.6642 147.302 72.4412 147.861 72.1841 148.405C72.11 148.6 71.9766 148.767 71.8026 148.882C71.6819 148.956 71.5396 148.987 71.3991 148.97C71.2586 148.952 71.1281 148.888 71.029 148.787C70.8304 148.494 70.6701 148.177 70.552 147.843C69.4922 145.438 68.655 143.254 68.0403 141.654C67.6537 140.816 67.3588 139.938 67.1606 139.036C67.6557 139.816 68.0711 140.643 68.4006 141.506C69.1107 143.064 70.0539 145.226 71.0607 147.631C71.1585 147.899 71.2791 148.158 71.4211 148.405C71.4741 148.405 71.4211 148.405 71.5165 148.405C71.5963 148.34 71.6583 148.257 71.6966 148.161C71.9502 147.64 72.1766 147.106 72.3749 146.561C72.7458 145.501 73.0002 144.526 73.244 143.71C73.4547 142.809 73.7825 141.94 74.219 141.124Z" fill="#4F4879"/>
<path d="M70.3607 215.141C70.3101 214.893 70.2817 214.642 70.276 214.389C70.276 213.838 70.2336 213.131 70.1488 212.269C70.064 210.319 69.9368 207.617 69.7885 204.299C69.5341 197.517 69.1738 188.243 68.7922 178.006C68.4107 167.768 68.1669 158.494 67.955 151.712C67.8808 148.384 67.8172 145.681 67.7642 143.731C67.7642 142.841 67.7642 142.12 67.7642 141.612C67.7368 141.358 67.7368 141.102 67.7642 140.849C67.8131 141.096 67.8379 141.348 67.8384 141.601C67.8384 142.152 67.9232 142.873 67.9762 143.721C68.061 145.66 68.1881 148.363 68.3365 151.68C68.5909 158.463 68.9406 167.736 69.3327 177.974C69.7249 188.211 69.9474 197.485 70.17 204.278C70.2442 207.595 70.3077 210.298 70.3607 212.248C70.3607 213.149 70.3607 213.869 70.3607 214.421C70.3857 214.66 70.3857 214.902 70.3607 215.141Z" fill="#4F4879"/>
<path d="M66.5874 145.735L68.3255 150.525L69.8198 145.385L67.4988 140.234L66.5874 145.735Z" fill="white"/>
<path d="M68.6436 149.094L67.499 203.017L75.6383 220.038L78.8496 200.887L68.6436 149.094Z" fill="white"/>
<path d="M117.141 182.923C117.141 182.923 117.141 183.082 117.141 183.347L117.077 183.75L116.897 183.347C116.487 182.275 116.251 181.144 116.197 179.998C116.022 178.719 116.175 177.417 116.643 176.214C116.801 176.214 116.643 177.91 116.748 179.966C116.833 181.429 117.066 182.679 117.141 183.283H116.897C116.992 182.997 117.098 182.923 117.141 182.923Z" fill="#4F4879"/>
<path d="M119.525 182.743C118.735 181.914 118.147 180.912 117.808 179.818C117.298 178.807 117.02 177.696 116.992 176.564C117.532 177.55 117.972 178.586 118.306 179.659C118.812 180.645 119.22 181.678 119.525 182.743Z" fill="#4F4879"/>
<path d="M158.876 159.915C156.584 158.702 154.381 157.328 152.284 155.803C150.087 154.431 147.99 152.905 146.01 151.235C148.301 152.457 150.504 153.838 152.602 155.368C154.799 156.733 156.896 158.252 158.876 159.915Z" fill="#4F4879"/>
<path d="M43.3249 168.574C43.3249 168.574 38.9161 199.308 41.0039 201.025C52.5346 210.722 68.5589 215.809 74.2819 217.409C75.1191 217.208 76.0942 216.943 77.2176 216.583C78.1914 216.274 79.1053 215.8 79.9201 215.184C80.9605 214.454 81.8949 213.584 82.6968 212.598C82.8179 212.386 83.0017 212.218 83.2228 212.115C83.4439 212.013 83.6914 211.981 83.9311 212.026C84.1708 212.07 84.3909 212.187 84.5608 212.362C84.7308 212.537 84.8423 212.76 84.88 213.001C84.933 214.061 83.2373 216.784 80.0473 218.777C80.0473 218.777 87.3917 230.594 89.7339 231.664C92.0761 232.734 98.7741 235.744 97.6401 236.316C96.5061 236.889 88.3562 234.525 88.3562 234.525L71.8232 230.106C71.8232 230.106 17.137 221.532 20.7722 196.446C23.0083 181.069 25.4459 167.217 26.3255 163.709L43.3249 168.574Z" fill="#FFBE9D"/>
<path d="M25.4036 162.278L20.5497 195.779C19.4157 206.091 26.3257 214.283 35.6202 218.893C49.7686 225.898 70.774 230.901 70.5939 230.869C70.4137 230.837 72.014 215.915 72.014 215.915C72.014 215.915 42.5619 203.197 41.6399 197.686C40.7179 192.175 45.381 169.283 45.381 169.283L25.4036 162.278Z" fill="#8579CB"/>
<path d="M70.5516 230.869C70.5405 230.781 70.5405 230.692 70.5516 230.604C70.5516 230.392 70.5516 230.138 70.6046 229.83C70.6576 229.099 70.7318 228.113 70.8378 226.852C71.0603 224.224 71.3889 220.493 71.781 215.904L71.8976 216.095L57.0603 208.92L52.821 206.801C51.3903 206.038 49.9489 205.2 48.5182 204.278C47.0666 203.341 45.6722 202.319 44.3426 201.215C43.6749 200.654 43.0072 200.06 42.3713 199.435C42.0128 199.12 41.724 198.734 41.5235 198.301C41.4111 198.091 41.329 197.866 41.2797 197.633C41.2101 197.412 41.1605 197.185 41.1313 196.955C40.6544 193.288 41.6294 189.833 42.1911 186.537C42.7528 183.241 43.3145 180.03 43.8445 176.999C44.9043 170.915 45.8687 165.447 46.6741 160.826C47.109 158.779 47.3573 156.697 47.416 154.605C47.4365 153.031 47.1108 151.472 46.4622 150.037C46.0461 149.132 45.4554 148.318 44.7241 147.642C44.2154 147.186 43.908 147.006 43.9186 146.974C44.2339 147.133 44.5292 147.329 44.7983 147.557C45.5764 148.214 46.2082 149.026 46.6529 149.942C47.3485 151.398 47.7106 152.991 47.7127 154.605C47.6891 156.716 47.4656 158.821 47.0451 160.89C46.2714 165.521 45.3494 171 44.332 177.094C43.8127 180.136 43.2722 183.336 42.7105 186.632C42.5727 187.459 42.4243 188.296 42.2759 189.144C42.1276 189.992 41.9686 190.819 41.852 191.667C41.5733 193.38 41.527 195.123 41.7142 196.849C41.7478 197.06 41.7938 197.269 41.852 197.474C41.8937 197.678 41.9651 197.874 42.064 198.057C42.2385 198.432 42.4915 198.764 42.8058 199.032C43.4311 199.647 44.0776 200.23 44.7347 200.781C46.0466 201.873 47.4233 202.886 48.8573 203.812C50.2669 204.734 51.687 205.561 53.0966 206.324L57.3358 208.443L72.0566 215.777L72.1731 215.841V215.968C71.6962 220.557 71.3147 224.277 71.0497 226.905C70.9014 228.156 70.7954 229.152 70.7106 229.873C70.6682 230.183 70.6364 230.438 70.6152 230.636C70.6016 230.715 70.5803 230.793 70.5516 230.869Z" fill="#4F4879"/>
<path d="M67.8169 213.87C67.8484 214.637 67.7879 215.406 67.6368 216.159C67.4566 217.558 67.1599 219.487 66.7677 221.606C66.3756 223.726 65.9305 225.634 65.5701 227.001C65.4247 227.754 65.1788 228.485 64.8389 229.173C64.8758 228.407 64.9931 227.647 65.1886 226.905C65.4995 225.309 65.8528 223.507 66.2484 221.5C66.6193 218.928 67.143 216.38 67.8169 213.87Z" fill="#4F4879"/>
<path d="M70.5518 230.869C70.3753 230.868 70.2001 230.839 70.0325 230.784L68.5805 230.434L63.2815 229.035C58.7985 227.827 52.5668 226.238 45.89 223.789C42.748 222.64 39.6886 221.277 36.7333 219.709C34.3189 218.425 32.0148 216.943 29.8445 215.279C28.3801 214.158 26.9988 212.933 25.7113 211.612C25.2555 211.146 24.927 210.775 24.6514 210.552C24.5253 210.427 24.4181 210.285 24.3335 210.128C24.3335 210.128 24.8634 210.627 25.8172 211.506C27.1609 212.757 28.5764 213.928 30.0565 215.014C32.2481 216.591 34.5503 218.007 36.9452 219.253C39.8932 220.785 42.9377 222.123 46.0596 223.259C52.694 225.697 58.9151 227.34 63.3662 228.654L68.6653 230.212L70.096 230.668C70.256 230.715 70.4091 230.782 70.5518 230.869Z" fill="#4F4879"/>
</svg>
