<svg width="480" height="466" viewBox="0 0 480 466" fill="none" xmlns="http://www.w3.org/2000/svg">
<path fillRule="evenodd" clipRule="evenodd" d="M239.526 160.447C284.111 147.512 341.901 142.1 373.335 158.828C406.123 176.275 381.923 214.373 392.184 241.684C398.352 258.101 416.127 270.008 421.359 286.652C427.797 307.132 439.612 327.896 426.091 349.555C411.556 372.838 381.573 394.397 345.971 407.411C310.575 420.35 271.659 418.346 233.863 419.825C194.569 421.363 153.664 425.742 120.883 416.222C85.4514 405.933 59.8879 387.204 44.5227 364.84C27.9563 340.729 10.9217 312.451 30.5222 284.706C49.987 257.153 106.622 247.226 142.812 225.71C177.936 204.827 196.602 172.901 239.526 160.447Z" fill="#F0EAF2"/>
<path d="M308.814 374.184C293.469 366.938 287.354 349.711 285.191 333.664C284.826 331 284.061 328.23 284.933 325.672C285.805 323.115 288.493 321.028 291.075 321.747C293.22 322.342 294.475 324.491 295.908 326.187C297.814 328.476 300.333 330.176 303.171 331.089C305.022 331.684 307.22 331.871 308.742 330.663C310.825 329.002 310.523 325.788 310.095 323.142C309.223 318.234 308.369 313.326 307.532 308.418C306.929 305.8 306.752 303.101 307.007 300.426C307.398 297.762 308.831 295.098 311.235 293.997C313.638 292.896 317.011 293.793 317.981 296.297C318.267 297.374 318.482 298.469 318.622 299.574C318.88 300.666 319.601 301.794 320.696 301.927C321.791 302.06 322.743 301.128 323.411 300.213C325.689 297.079 326.971 293.322 328.128 289.602C329.285 285.881 330.371 282.089 332.365 278.75C334.359 275.411 337.403 272.534 341.168 271.646C344.933 270.758 349.383 272.445 350.958 276.006C352.534 279.567 351.012 283.732 349.178 287.159C346.394 292.235 342.889 296.883 338.773 300.959C337.952 301.612 337.36 302.507 337.082 303.517C336.806 305.381 338.782 306.856 340.642 307.14C342.725 307.459 344.844 306.891 346.953 306.784C349.062 306.678 351.457 307.211 352.578 309.031C354.118 311.553 352.329 314.777 350.415 317.023C346.572 321.499 341.987 325.284 336.86 328.212C335.026 329.251 333.077 330.228 331.733 331.862C330.389 333.496 329.846 336.035 331.11 337.74C332.374 339.445 334.928 339.632 336.904 338.904C338.88 338.176 340.527 336.764 342.351 335.707C345.769 333.718 350.522 333.167 353.397 335.92C354.294 336.883 354.954 338.04 355.326 339.3C355.699 340.561 355.772 341.89 355.542 343.184C355.069 345.761 354.079 348.217 352.632 350.403C348.022 358.309 341.394 364.854 333.424 369.371C325.458 373.723 317.75 375.845 308.823 374.193" fill="#F5F5F5"/>
<path d="M311.244 363.474C312.424 354.335 314.13 345.271 316.353 336.327L318.062 329.285C318.622 326.968 319.183 324.677 319.842 322.474C321.173 318.248 322.735 314.098 324.523 310.042C326.206 306.153 327.941 302.512 329.588 299.129C331.235 295.745 332.846 292.62 334.43 289.84C336.903 285.432 339.725 281.227 342.868 277.266C343.98 275.863 344.879 274.806 345.493 274.096C345.787 273.758 346.027 273.492 346.197 273.288C346.366 273.083 346.446 273.021 346.455 273.03C346.39 273.133 346.319 273.23 346.241 273.323L345.565 274.158C344.977 274.886 344.105 275.934 343.019 277.381C339.945 281.381 337.175 285.605 334.732 290.018C333.175 292.806 331.591 295.932 329.953 299.315C328.315 302.698 326.606 306.339 324.942 310.229C323.169 314.284 321.624 318.435 320.313 322.661C319.628 324.854 319.076 327.101 318.533 329.445L316.824 336.496C314.607 345.421 312.892 354.464 311.689 363.58" fill="#E0E0E0"/>
<path d="M319.992 322.438C319.8 322.093 319.647 321.727 319.538 321.346C319.271 320.645 318.924 319.57 318.515 318.318C317.696 315.743 316.681 312.146 315.578 308.186C314.474 304.225 313.415 300.647 312.551 298.098C312.124 296.819 311.768 295.78 311.519 295.079C311.369 294.714 311.253 294.337 311.172 293.951C311.387 294.282 311.563 294.637 311.697 295.008C312.009 295.692 312.409 296.713 312.881 297.974C313.833 300.514 314.946 304.074 316.058 308.053C317.171 312.031 318.105 315.512 318.853 318.212C319.2 319.437 319.485 320.467 319.743 321.293C319.86 321.667 319.943 322.05 319.992 322.438Z" fill="#E0E0E0"/>
<path d="M353.059 310.309C352.629 310.488 352.181 310.622 351.724 310.709C350.834 310.931 349.614 311.25 348.083 311.694C345.013 312.582 340.82 313.897 336.254 315.584C331.688 317.271 327.621 318.985 324.684 320.299C323.224 320.947 322.058 321.507 321.248 321.889C320.841 322.11 320.415 322.294 319.975 322.439C320.343 322.156 320.74 321.912 321.159 321.711C321.942 321.276 323.09 320.672 324.532 319.935C327.407 318.532 331.466 316.765 336.041 315.069C339.945 313.611 343.924 312.358 347.959 311.313C349.508 310.904 350.771 310.638 351.653 310.469C352.115 310.372 352.586 310.319 353.059 310.309Z" fill="#E0E0E0"/>
<path d="M311.555 362.79C311.441 362.674 311.339 362.546 311.252 362.408L310.46 361.28C309.775 360.286 308.822 358.838 307.674 357.027C305.36 353.404 302.334 348.298 299.067 342.615C295.801 336.931 292.837 331.807 290.585 328.149L287.915 323.807L287.202 322.625C287.108 322.495 287.033 322.351 286.98 322.199C286.98 322.199 287.096 322.315 287.283 322.572C287.47 322.83 287.763 323.247 288.075 323.709C288.76 324.695 289.712 326.142 290.87 327.962C293.175 331.585 296.21 336.683 299.477 342.366C302.743 348.049 305.707 353.173 307.95 356.84L310.62 361.174C310.905 361.645 311.145 362.062 311.332 362.355C311.428 362.488 311.503 362.635 311.555 362.79Z" fill="#E0E0E0"/>
<path d="M354.439 340.546C354.314 340.655 354.173 340.745 354.021 340.812L352.783 341.469L348.191 343.858C344.31 345.883 338.987 348.733 333.113 351.85C327.239 354.967 321.889 357.818 317.982 359.754C316.024 360.721 314.422 361.53 313.318 362L311.983 362.586C311.836 362.664 311.681 362.723 311.52 362.764C311.647 362.657 311.788 362.568 311.938 362.497L313.184 361.84L317.777 359.443C321.649 357.427 326.972 354.576 332.846 351.451C338.72 348.325 344.079 345.492 347.977 343.556C349.935 342.588 351.537 341.78 352.641 341.31L353.923 340.724C354.085 340.638 354.259 340.578 354.439 340.546Z" fill="#E0E0E0"/>
<path d="M197.521 183.573C197.521 183.573 186.947 185.038 192.884 208.144C198.821 231.25 203.858 243.167 203.858 243.167C203.858 243.167 204.651 248.398 200.423 248.238C196.195 248.078 187.57 244.686 184.642 249.206C181.616 253.93 184.268 259.613 190.872 265.572C197.477 271.53 211.557 285.108 212.821 286.342C214.085 287.577 215.011 290.116 212.109 290.463C209.208 290.809 188.629 288.402 188.077 298.215C187.526 308.027 208.736 321.596 211.023 323.124C213.311 324.651 213.694 325.841 213.16 327.173C212.626 328.505 205.808 327.04 199.924 326.587C194.041 326.134 187.134 326.658 187.285 332.341C187.437 338.024 198.58 352.41 231.068 363.102L246.457 367.071L257.823 355.9C280.698 330.512 283.199 312.512 280.502 307.503C277.805 302.495 271.601 305.47 266.67 308.773C261.739 312.077 256.577 316.765 255.473 315.877C254.37 314.989 254.085 313.764 255.313 311.304C256.541 308.844 268.192 286.555 262.816 278.315C257.44 270.074 240.778 282.346 238.108 283.474C235.438 284.602 234.957 281.92 235.438 280.25C235.919 278.581 241.348 259.826 244.143 251.346C246.938 242.865 246.404 236.631 241.419 234.039C236.613 231.543 230.836 238.789 227.24 241.027C223.645 243.265 221.74 238.363 221.74 238.363C221.74 238.363 220.173 225.531 213.818 202.532C207.463 179.533 197.325 183.653 197.325 183.653" fill="#EBEBEB"/>
<path d="M246.447 370.889C241.845 354.017 234.164 323.825 227.444 297.904C220.724 271.983 214.618 248.611 210.097 231.685C207.836 223.231 206.002 216.394 204.756 211.643C204.133 209.29 203.644 207.451 203.305 206.19L202.932 204.77C202.851 204.45 202.825 204.281 202.825 204.281C202.825 204.281 202.887 204.432 202.985 204.752C203.083 205.072 203.216 205.56 203.394 206.164C203.759 207.425 204.284 209.245 204.943 211.59C206.278 216.305 208.165 223.134 210.461 231.588C215.063 248.46 221.231 271.912 227.951 297.78C234.671 323.647 242.29 353.866 246.812 370.792" fill="#E0E0E0"/>
<path d="M196.513 254.479C196.869 254.626 197.209 254.807 197.528 255.021C198.16 255.394 199.068 255.962 200.198 256.673C202.414 258.103 205.432 260.154 208.716 262.472L217.1 268.439L219.655 270.215C219.977 270.415 220.276 270.65 220.545 270.917C220.186 270.772 219.843 270.59 219.521 270.375C218.889 270.002 217.982 269.434 216.851 268.714C214.653 267.267 211.662 265.162 208.378 262.853L199.949 256.948L197.385 255.172C197.071 254.973 196.778 254.741 196.513 254.479Z" fill="#E0E0E0"/>
<path d="M221.837 270.18C221.721 270.109 225.682 263.724 230.675 255.919C235.669 248.113 239.825 241.844 239.941 241.915C240.057 241.986 236.096 248.379 231.094 256.185C226.091 263.991 221.953 270.233 221.837 270.18Z" fill="#E0E0E0"/>
<path d="M230.364 310.39C230.61 310.083 230.894 309.809 231.209 309.573L233.604 307.477C235.624 305.701 238.41 303.25 241.383 300.426C244.356 297.602 246.972 294.965 248.842 293.038C249.732 292.15 250.461 291.36 251.058 290.756C251.327 290.458 251.625 290.187 251.948 289.948C251.751 290.287 251.512 290.6 251.236 290.88C250.755 291.457 250.034 292.274 249.126 293.269C247.346 295.267 244.747 297.958 241.757 300.781C238.766 303.605 235.953 306.038 233.871 307.743C232.82 308.631 231.966 309.271 231.361 309.724C231.054 309.982 230.72 310.205 230.364 310.39Z" fill="#E0E0E0"/>
<path d="M204.329 301.216C204.688 301.259 205.041 301.345 205.379 301.473L208.201 302.361C210.568 303.116 213.835 304.191 217.431 305.398C221.027 306.606 224.275 307.743 226.616 308.586L229.384 309.599C229.729 309.706 230.061 309.852 230.372 310.034C230.013 309.997 229.66 309.914 229.322 309.785L226.501 308.897C224.133 308.142 220.867 307.068 217.271 305.851C213.675 304.635 210.426 303.507 208.085 302.672L205.317 301.651C204.97 301.551 204.637 301.404 204.329 301.216Z" fill="#E0E0E0"/>
<path d="M207.337 337.669C207.795 337.737 208.246 337.85 208.681 338.006L212.295 339.108C215.339 340.058 219.531 341.399 224.16 342.917C228.788 344.436 232.962 345.821 235.98 346.86L239.54 348.103C239.983 348.245 240.414 348.42 240.831 348.627C240.37 348.559 239.916 348.446 239.478 348.29L235.864 347.188C232.82 346.238 228.628 344.897 223.999 343.379C219.371 341.86 215.197 340.466 212.188 339.436L208.628 338.184C208.183 338.051 207.751 337.879 207.337 337.669Z" fill="#E0E0E0"/>
<path d="M240.1 348.138C240.413 347.754 240.762 347.4 241.141 347.081L244.088 344.32C246.571 341.984 249.989 338.743 253.665 335.058C257.341 331.372 260.589 327.954 262.921 325.467L265.681 322.519C266.005 322.142 266.36 321.792 266.74 321.471C266.48 321.889 266.182 322.281 265.85 322.643C265.244 323.38 264.337 324.419 263.18 325.698C260.91 328.256 257.706 331.719 254.012 335.404C250.318 339.089 246.891 342.304 244.328 344.577C243.046 345.705 242.005 346.62 241.266 347.241C240.903 347.572 240.513 347.872 240.1 348.138Z" fill="#E0E0E0"/>
<path d="M151.592 45.7799L142.905 43.1159C142.905 43.1159 140.627 50.3975 133.008 48.1686C131.533 47.7634 130.22 46.9107 129.252 45.7287C128.285 44.5466 127.709 43.0936 127.605 41.5707C127.491 40.2865 127.686 38.9937 128.174 37.7998C128.661 36.6058 129.427 35.5453 130.409 34.7064C132.643 32.735 136.559 31.5362 142.086 34.3867L148.201 14.8505L139.612 12.1865L136.052 23.633C136.052 23.633 123.021 22.9847 118.882 36.2249C114.922 48.8968 125.389 55.3881 130.266 56.9066C133.969 58.061 146.973 61.1158 151.592 45.7799Z" fill="#F5F5F5"/>
<path d="M140.776 8.12103L149.493 10.835L152.033 2.71402L143.316 9.51595e-05L140.776 8.12103Z" fill="#F5F5F5"/>
<path d="M175.563 23.7236L179.043 22.8356C178.937 22.4413 178.911 22.0297 178.968 21.6252C179.024 21.2208 179.161 20.8318 179.372 20.4814C179.582 20.131 179.86 19.8263 180.191 19.5854C180.521 19.3446 180.897 19.1724 181.295 19.0793C181.875 18.9047 182.495 18.9143 183.069 19.1068C183.643 19.2993 184.143 19.6652 184.499 20.1538C184.802 20.5595 185.004 21.0308 185.089 21.5293C185.174 22.0278 185.14 22.5393 184.989 23.0221C184.66 24.1498 183.6 25.3753 181.144 25.5795L183.218 33.4029L186.653 32.5149L185.443 27.9327C186.746 27.1487 187.754 25.9589 188.312 24.5468C188.87 23.1346 188.947 21.5785 188.531 20.1183C187.196 15.0389 182.301 15.0655 180.37 15.5717C178.874 15.918 173.881 17.6141 175.563 23.7236Z" fill="#EBEBEB"/>
<path d="M187.864 33.6539L184.358 34.5913L185.235 37.8559L188.741 36.9185L187.864 33.6539Z" fill="#EBEBEB"/>
<path d="M462.884 113.599L466.267 114.815C466.408 114.433 466.626 114.083 466.905 113.786C467.185 113.489 467.521 113.251 467.894 113.085C468.267 112.92 468.67 112.83 469.078 112.822C469.487 112.815 469.892 112.888 470.272 113.039C470.842 113.222 471.341 113.576 471.701 114.053C472.061 114.53 472.264 115.106 472.283 115.703C472.304 116.213 472.204 116.72 471.99 117.183C471.777 117.646 471.456 118.052 471.055 118.367C470.165 119.104 468.572 119.504 466.436 118.278L463.668 125.889L467.014 127.096L468.634 122.656C470.153 122.75 471.661 122.344 472.927 121.5C474.192 120.657 475.145 119.422 475.639 117.985C477.419 113.048 473.405 110.304 471.509 109.62C470.058 109.052 464.985 107.622 462.884 113.599Z" fill="#EBEBEB"/>
<path d="M466.515 128.638L463.117 127.411L461.968 130.575L465.366 131.803L466.515 128.638Z" fill="#EBEBEB"/>
<path d="M103.938 152.243L111.059 149.49C111.059 149.49 108.745 143.496 114.949 140.983C116.136 140.482 117.45 140.361 118.709 140.636C119.969 140.911 121.111 141.569 121.98 142.519C122.719 143.31 123.261 144.263 123.561 145.301C123.861 146.34 123.911 147.434 123.707 148.496C123.262 150.964 121.304 153.824 116.15 154.81L122.381 170.909L129.501 168.192L125.852 158.761C125.852 158.761 134.753 152.385 130.578 141.463C126.528 131.02 116.168 132.21 112.189 133.746C109.119 134.927 98.9362 139.696 103.938 152.243Z" fill="#F5F5F5"/>
<path d="M130.85 171.469L123.666 174.23L126.252 180.926L133.436 178.164L130.85 171.469Z" fill="#F5F5F5"/>
<path d="M465.67 179.336L460.597 181.281C460.597 181.281 462.234 185.535 457.837 187.311C456.995 187.662 456.066 187.746 455.174 187.552C454.283 187.358 453.472 186.896 452.853 186.227C452.329 185.667 451.946 184.991 451.734 184.255C451.522 183.519 451.488 182.743 451.634 181.991C451.954 180.215 453.343 178.226 456.974 177.551L452.613 166.105L447.593 168.032L450.174 174.719C448.347 176.113 447.03 178.068 446.425 180.282C445.821 182.496 445.962 184.847 446.827 186.973C449.684 194.37 457.001 193.536 459.849 192.443C462.003 191.6 469.212 188.225 465.67 179.336Z" fill="#F5F5F5"/>
<path d="M446.599 165.712L451.69 163.755L449.86 159.015L444.769 160.972L446.599 165.712Z" fill="#F5F5F5"/>
<path d="M480 375.702C480 375.835 392.017 375.932 283.509 375.932C175.001 375.932 87 375.835 87 375.702C87 375.568 174.965 375.471 283.509 375.471C392.053 375.471 480 375.577 480 375.702Z" fill="#263238"/>
<path d="M143.441 352.642C144.331 349.374 142.132 346.097 139.729 343.762C137.326 341.426 134.451 339.277 133.196 336.142C131.167 331.063 133.89 324.492 130.437 320.256C128.399 317.77 124.749 316.935 122.943 314.271C122.107 312.803 121.555 311.191 121.314 309.52C119.393 301.083 115.234 293.317 109.271 287.036C108.869 294.55 110.502 302.035 113.997 308.703C115.395 311.367 117.122 313.96 117.558 316.935C118.314 321.757 115.608 326.703 116.801 331.463C118.163 336.88 124.26 340.512 124.545 346.088C124.794 350.804 120.673 354.968 120.984 359.657C121.234 361.665 121.964 363.584 123.112 365.251C126.761 371.316 132.137 375.49 140.272 375.357L150.241 375.703L143.441 352.642Z" fill="#ABA1EC"/>
<g opacity="0.3">
<path opacity="0.3" d="M143.441 352.642C144.331 349.374 142.132 346.097 139.729 343.762C137.326 341.426 134.451 339.277 133.196 336.142C131.167 331.063 133.89 324.492 130.437 320.256C128.399 317.77 124.749 316.935 122.943 314.271C122.107 312.803 121.555 311.191 121.314 309.52C119.393 301.083 115.234 293.317 109.271 287.036C108.869 294.55 110.502 302.035 113.997 308.703C115.395 311.367 117.122 313.96 117.558 316.935C118.314 321.757 115.608 326.703 116.801 331.463C118.163 336.88 124.26 340.512 124.545 346.088C124.794 350.804 120.673 354.968 120.984 359.657C121.234 361.665 121.964 363.584 123.112 365.251C126.761 371.316 132.137 375.49 140.272 375.357L150.241 375.703L143.441 352.642Z" fill="black"/>
</g>
<path d="M152.252 375.906C153.165 376.047 154.096 376.029 155.003 375.853C156.104 375.686 157.186 375.413 158.234 375.036C159.681 374.534 161.034 373.796 162.239 372.852C162.964 372.27 163.53 371.516 163.886 370.658C164.183 369.697 164.339 368.698 164.348 367.692C164.369 366.617 164.449 365.544 164.589 364.478C164.776 363.343 165.188 362.256 165.799 361.281C166.974 359.221 168.932 357.267 169.555 354.47C170.178 351.673 169.751 348.742 169.288 345.759C168.826 342.775 168.398 339.543 169.52 336.417C170.641 333.291 172.777 330.494 173.872 326.995C174.967 323.496 174.451 319.642 174.682 315.886C174.75 313.978 175.192 312.102 175.982 310.363C176.783 308.587 177.904 306.944 178.776 305.097C180.557 301.349 180.859 297.105 181.34 292.94C181.58 290.844 181.812 288.722 182.052 286.591C182.203 284.436 182.576 282.302 183.165 280.224C183.84 278.128 184.636 276.073 185.55 274.07C186.02 273.034 186.407 271.962 186.707 270.864C186.875 269.728 186.982 268.584 187.027 267.436C187.134 265.139 187.044 262.837 186.76 260.554C186.493 258.263 186.075 255.99 185.826 253.69C185.826 253.548 185.826 253.415 185.826 253.29L185.772 252.837L185.372 253.033C183.267 254.11 181.44 255.657 180.031 257.553C178.65 259.409 177.538 261.451 176.729 263.618C175.065 267.889 174.469 272.365 173.632 276.636C172.795 280.907 171.727 285.108 169.538 288.66C168.443 290.436 167.117 292.052 165.977 293.775C164.74 295.456 163.895 297.391 163.503 299.44C162.907 303.649 165.23 307.343 164.749 311.073C164.532 312.9 163.925 314.659 162.969 316.232C162.079 317.822 161.002 319.296 159.987 320.77C158.959 322.216 158.065 323.753 157.317 325.361C156.613 326.935 156.197 328.622 156.089 330.343C155.848 333.699 156.32 336.879 156.089 339.88C155.811 342.741 154.973 345.519 153.623 348.059C152.422 350.501 151.078 352.712 149.956 354.861C149.395 355.926 148.87 356.974 148.443 358.031C148.039 359.045 147.74 360.099 147.553 361.174C147.255 363.053 147.231 364.964 147.482 366.849C147.743 369.477 148.729 371.982 150.33 374.086C150.575 374.404 150.846 374.701 151.14 374.974C151.336 375.18 151.554 375.364 151.79 375.525C152.163 375.8 152.359 375.924 152.359 375.924C151.648 375.363 151 374.726 150.428 374.024C148.9 371.913 147.977 369.426 147.758 366.831C147.531 364.97 147.573 363.086 147.882 361.237C148.07 360.187 148.368 359.16 148.772 358.173C149.223 357.105 149.731 356.061 150.294 355.047C151.425 352.916 152.778 350.714 154.006 348.254C155.396 345.675 156.261 342.847 156.552 339.933C156.819 336.87 156.356 333.673 156.605 330.405C156.72 328.74 157.126 327.108 157.806 325.583C158.559 324.008 159.453 322.504 160.477 321.09C161.491 319.616 162.568 318.142 163.494 316.516C164.51 314.884 165.16 313.051 165.399 311.144C165.879 307.175 163.574 303.463 164.17 299.547C164.561 297.588 165.378 295.738 166.565 294.13C167.695 292.434 169.03 290.818 170.125 288.997C172.395 285.347 173.489 281.067 174.317 276.778C175.145 272.489 175.759 268.049 177.397 263.858C178.185 261.751 179.266 259.766 180.61 257.961C181.965 256.142 183.722 254.659 185.746 253.628L185.292 253.37C185.292 253.503 185.292 253.637 185.336 253.779C185.585 256.105 186.004 258.379 186.226 260.652C186.507 262.899 186.594 265.166 186.484 267.427C186.439 268.539 186.338 269.647 186.182 270.749C185.894 271.811 185.519 272.847 185.06 273.848C184.142 275.873 183.34 277.948 182.657 280.064C182.064 282.175 181.688 284.341 181.536 286.528C181.304 288.669 181.064 290.791 180.833 292.887C180.352 297.069 180.04 301.243 178.34 304.857C177.45 306.633 176.382 308.329 175.554 310.141C174.74 311.945 174.286 313.891 174.219 315.868C173.997 319.704 174.495 323.461 173.454 326.853C172.412 330.245 170.25 333.069 169.155 336.275C168.06 339.48 168.461 342.873 168.941 345.847C169.422 348.822 169.903 351.753 169.262 354.39C168.621 357.027 166.787 358.999 165.595 361.112C164.966 362.13 164.545 363.262 164.357 364.442C164.223 365.521 164.152 366.606 164.144 367.692C164.145 368.673 164.001 369.649 163.717 370.587C163.387 371.401 162.857 372.118 162.177 372.674C161.004 373.617 159.684 374.361 158.269 374.876C157.235 375.274 156.165 375.571 155.074 375.764C154.407 375.885 153.731 375.951 153.054 375.96C152.493 375.906 152.252 375.906 152.252 375.906Z" fill="#263238"/>
<path d="M183.743 258.779C183.695 258.874 183.662 258.976 183.645 259.081L183.431 259.969C183.236 260.759 182.995 261.94 182.622 263.414C182.248 264.888 181.331 266.558 180.557 268.609C179.65 270.918 178.859 273.272 178.189 275.66C177.424 278.324 176.756 281.254 176.044 284.416C175.439 287.783 174.366 291.05 172.857 294.122C172.039 295.738 171.077 297.372 170.392 299.165C169.673 300.997 169.192 302.913 168.959 304.866C168.453 308.912 167.734 312.929 166.805 316.899C164.811 325.042 162.907 332.803 161.171 339.872C159.435 346.94 157.798 353.263 156.445 358.609C155.092 363.954 154.068 368.217 153.321 371.263C152.973 372.719 152.697 373.865 152.502 374.708C152.422 375.072 152.35 375.365 152.297 375.596C152.287 375.7 152.287 375.804 152.297 375.907C152.349 375.815 152.388 375.717 152.413 375.614C152.475 375.374 152.564 375.09 152.671 374.726C152.893 373.9 153.205 372.755 153.605 371.307C154.406 368.288 155.537 363.999 156.934 358.715C158.332 353.432 159.96 347.038 161.785 340.014C163.61 332.99 165.461 325.175 167.473 317.023C168.395 313.042 169.097 309.013 169.573 304.955C169.801 303.049 170.267 301.178 170.962 299.387C171.665 297.611 172.564 296.022 173.383 294.388C175.163 291.147 175.866 287.666 176.569 284.531C177.272 281.396 177.895 278.43 178.625 275.784C179.355 273.138 180.12 270.776 180.886 268.733C181.651 266.691 182.497 265.004 182.862 263.476C183.227 261.949 183.396 260.812 183.556 259.995C183.615 259.628 183.669 259.332 183.716 259.107C183.743 258.885 183.761 258.779 183.743 258.779Z" fill="#263238"/>
<path d="M154.015 375.952C160.521 372.089 162.39 360.367 159.676 353.316C156.961 346.265 152.208 339.819 151.478 332.297C150.908 326.516 152.813 320.584 151.478 314.937C149.653 307.309 142.195 301.403 142.284 293.562C142.328 289.167 144.838 285.028 144.633 280.633C144.393 275.251 140.245 270.971 137.682 266.229C133.748 258.956 133.49 250.369 132.146 242.253C130.802 234.137 127.695 225.381 120.45 221.376C119.382 228.294 117.558 233.036 118.127 242.404C118.341 245.77 122.257 252.172 122.791 259.587C123.112 264.027 123.325 268.414 123.601 272.818C123.877 277.223 124.144 281.485 125.684 285.499C126.868 288.58 128.764 291.378 129.645 294.557C131.291 300.533 129.12 306.989 130.455 313.063C131.585 318.196 135.145 322.609 135.875 327.813C136.89 335.121 132.155 342.722 134.576 349.693C135.786 353.156 138.634 355.909 139.444 359.506C140.076 362.276 139.391 365.216 139.961 367.995C140.851 372.488 149.449 375.987 154.033 375.694" fill="#ABA1EC"/>
<path d="M122.231 228.204C122.219 228.334 122.219 228.465 122.231 228.595C122.231 228.888 122.32 229.261 122.373 229.731C122.525 230.735 122.694 232.2 123.032 234.1C123.37 236.001 124.385 238.15 125.168 240.743C125.951 243.336 126.824 246.302 127.553 249.623C128.283 252.944 128.924 256.647 129.574 260.616C130.224 264.586 130.936 268.91 132.912 273.049C133.802 275.118 134.852 277.196 135.582 279.416C136.33 281.688 136.79 284.045 136.952 286.431C137.316 291.494 137.955 296.533 138.866 301.527C140.86 311.775 142.756 321.534 144.482 330.423C146.209 339.312 147.945 347.242 149.333 353.955C150.722 360.668 151.861 366.032 152.653 369.815L153.543 374.122C153.65 374.583 153.73 374.947 153.801 375.232C153.826 375.362 153.861 375.49 153.908 375.613C153.924 375.484 153.924 375.353 153.908 375.223C153.855 374.93 153.793 374.566 153.712 374.095C153.517 373.065 153.241 371.609 152.894 369.761C152.146 365.97 151.113 360.553 149.769 353.866C148.425 347.179 146.832 339.161 145.061 330.307C143.29 321.454 141.501 311.659 139.498 301.42C138.587 296.426 137.945 291.387 137.576 286.324C137.406 283.889 136.931 281.484 136.16 279.167C135.368 276.911 134.327 274.825 133.41 272.764C131.452 268.688 130.74 264.435 130.063 260.483C129.387 256.532 128.737 252.82 127.963 249.481C127.188 246.142 126.343 243.158 125.471 240.601C124.598 238.043 123.628 235.876 123.237 234.021C122.845 232.165 122.658 230.673 122.471 229.687C122.382 229.225 122.311 228.852 122.257 228.559C122.256 228.44 122.247 228.322 122.231 228.204Z" fill="#263238"/>
<path d="M422.85 33.2185H426.41C426.407 32.8156 426.486 32.4163 426.641 32.0443C426.796 31.6723 427.024 31.3351 427.312 31.0528C427.6 30.7704 427.942 30.5485 428.318 30.4004C428.693 30.2523 429.095 30.1808 429.498 30.1904C430.095 30.169 430.683 30.3338 431.18 30.6617C431.678 30.9896 432.061 31.4643 432.275 32.0197C432.463 32.4821 432.538 32.9822 432.495 33.4792C432.452 33.9762 432.291 34.4558 432.026 34.879C431.421 35.8736 430.104 36.7705 427.718 36.3531V44.3452H431.216V39.6743C432.652 39.2527 433.909 38.3729 434.795 37.1698C435.681 35.9667 436.146 34.5069 436.121 33.0142C436.121 27.846 431.474 26.6472 429.481 26.6472C427.959 26.6117 422.778 26.9758 422.85 33.2185Z" fill="#ABA1EC"/>
<path d="M431.242 45.96H427.69V49.2722H431.242V45.96Z" fill="#ABA1EC"/>
<path d="M455.533 37.9753C455.545 37.8246 455.545 37.6731 455.533 37.5224C455.533 37.2027 455.533 36.7676 455.533 36.2081C455.533 35.924 455.533 35.5954 455.488 35.2402C455.444 34.885 455.391 34.4943 455.328 34.0858C455.266 33.6773 455.204 33.1978 455.132 32.7272L454.759 31.2175C454.097 28.6178 453.015 26.1432 451.554 23.8915C449.433 20.5568 446.574 17.7518 443.196 15.692C439.819 13.6323 436.013 12.3726 432.071 12.0099C430.887 11.9056 429.698 11.8819 428.511 11.9389C427.914 11.9389 427.3 11.9389 426.73 12.0543L424.897 12.3296C422.381 12.7961 419.947 13.6247 417.67 14.7894C415.292 16.0444 413.107 17.6323 411.181 19.5047C409.209 21.499 407.56 23.788 406.294 26.2891C404.933 28.8676 404.041 31.6668 403.66 34.5565C403.549 35.2886 403.486 36.0272 403.473 36.7676C403.414 37.509 403.399 38.2533 403.428 38.9965C403.622 43.7602 405.115 48.3809 407.745 52.361V52.0857C406.508 55.1671 405.289 58.1952 404.096 61.1434L403.882 61.6851L404.443 61.5253L414.145 58.8612L413.913 58.808C417.181 61.2758 420.987 62.9373 425.021 63.6565C426.893 64.0045 428.8 64.1208 430.7 64.0028C431.616 63.9892 432.53 63.9031 433.433 63.7453L434.759 63.541C435.195 63.4611 435.649 63.3279 436.04 63.2302C442.019 61.7187 447.263 58.1332 450.833 53.1158C452.165 51.2675 453.234 49.2444 454.011 47.104C454.18 46.6334 454.34 46.216 454.492 45.7542C454.643 45.2925 454.723 44.8662 454.821 44.4666C454.919 44.067 455.026 43.6585 455.115 43.2856C455.204 42.9126 455.23 42.5485 455.284 42.2022C455.364 41.5184 455.488 40.9146 455.515 40.4262C455.542 39.9378 455.515 39.4671 455.515 39.0942C455.515 38.7212 455.515 38.4903 455.515 38.2861C455.515 38.0818 455.515 38.0108 455.515 38.0108C455.502 38.1021 455.502 38.1948 455.515 38.2861C455.515 38.4903 455.515 38.7567 455.453 39.0942C455.391 39.4316 455.399 39.9023 455.364 40.4173C455.328 40.9324 455.195 41.5362 455.088 42.1933C454.239 47.1081 451.978 51.6712 448.579 55.3284C445.181 58.9856 440.791 61.5795 435.943 62.7951C435.524 62.8928 435.106 63.0171 434.679 63.097L433.37 63.2924C432.488 63.4394 431.595 63.5196 430.7 63.5322C428.835 63.6303 426.965 63.508 425.128 63.1681C421.188 62.4447 417.473 60.8116 414.278 58.3995L414.172 58.3107H414.038L404.327 60.9747L404.666 61.3565L408.324 52.3077L408.377 52.1657L408.297 52.0325C406.544 49.3869 405.301 46.4387 404.63 43.3389C404.323 41.9007 404.138 40.4391 404.078 38.9699C404.048 38.2444 404.063 37.5179 404.123 36.7942C404.128 36.0715 404.188 35.3502 404.301 34.6364C404.642 31.8145 405.483 29.0754 406.784 26.5466C408.021 24.1023 409.627 21.8621 411.546 19.9043C413.431 18.0661 415.571 16.508 417.901 15.2778C420.127 14.1225 422.511 13.2997 424.977 12.8358L426.757 12.5605C427.353 12.4717 427.95 12.4806 428.537 12.4362C429.697 12.3811 430.86 12.4019 432.017 12.4983C435.895 12.8369 439.643 14.0526 442.979 16.0528C446.315 18.0531 449.15 20.7855 451.27 24.0424C452.738 26.2549 453.838 28.6899 454.527 31.2531L454.928 32.7449C455.008 33.2156 455.079 33.6329 455.15 34.0769C455.221 34.5209 455.275 34.8761 455.337 35.2313C455.399 35.5865 455.382 35.9062 455.408 36.1904C455.408 36.741 455.48 37.1761 455.506 37.4958C455.489 37.656 455.498 37.8179 455.533 37.9753Z" fill="#263238"/>
<path d="M190.105 142.697H241.506C241.506 142.697 241.506 99.6375 286.356 98.8738C309.649 98.4653 321.728 113.695 326.641 125.354C332.337 138.896 330.61 154.33 322.974 166.895C314.26 181.237 295.48 195.649 260.838 189.557L260.509 303.817H311.341V236.08C311.341 236.08 382.626 217.698 382.626 139.287C382.626 64.2948 321.843 48.0975 289.169 47.0497C270.994 46.4725 264.407 45.691 241.924 48.879C213.273 52.9638 189.499 86.1576 190.105 142.697Z" fill="#ABA1EC"/>
<path d="M311.954 327.634H260.366V375.702H311.954V327.634Z" fill="#ABA1EC"/>
<path opacity="0.1" d="M311.954 327.634H260.366V375.702H311.954V327.634Z" fill="black"/>
<path opacity="0.1" d="M190.105 142.697H241.506C241.506 142.697 241.506 99.6375 286.356 98.8738C309.649 98.4653 321.728 113.695 326.641 125.354C332.337 138.896 330.61 154.33 322.974 166.895C314.26 181.237 295.48 195.649 260.838 189.557L260.509 303.817H311.341V236.08C311.341 236.08 382.626 217.698 382.626 139.287C382.626 64.2948 321.843 48.0975 289.169 47.0497C270.994 46.4725 264.407 45.691 241.924 48.879C213.273 52.9638 189.499 86.1576 190.105 142.697Z" fill="black"/>
<path d="M168.806 142.697H220.216C220.216 142.697 220.216 99.6379 265.066 98.8742C288.359 98.4657 300.438 113.695 305.342 125.355C311.047 138.897 309.321 154.33 301.684 166.896C292.97 181.237 273.86 194.273 239.219 188.208V303.818H290.051V236.08C290.051 236.08 361.336 217.699 361.336 139.287C361.336 64.2952 293.922 46.8813 265.075 46.8813C243.011 46.908 167.836 52.2272 168.806 142.697Z" fill="#ABA1EC"/>
<path d="M168.806 142.697H220.216C220.216 142.697 220.216 99.6379 265.066 98.8742C288.359 98.4657 300.438 113.695 305.342 125.355C311.047 138.897 309.321 154.33 301.684 166.896C292.97 181.237 273.86 194.273 239.219 188.208V303.818H290.051V236.08C290.051 236.08 361.336 217.699 361.336 139.287C361.336 64.2952 293.922 46.8813 265.075 46.8813C243.011 46.908 167.836 52.2272 168.806 142.697Z" fill="#8579CB"/>
<path d="M290.665 327.634H239.077V375.702H290.665V327.634Z" fill="#ABA1EC"/>
<path d="M290.665 327.634H239.077V375.702H290.665V327.634Z" fill="#8579CB"/>
<path d="M270.87 99.1044C270.616 99.1263 270.36 99.1263 270.105 99.1044C269.598 99.1044 268.868 98.9357 267.915 98.9268C265.223 98.7948 262.523 98.9078 259.851 99.2643C255.889 99.7647 251.99 100.678 248.218 101.99C245.995 102.766 243.829 103.698 241.738 104.779C239.478 105.906 237.35 107.279 235.392 108.873C233.448 110.481 231.706 112.317 230.203 114.343C228.779 116.215 227.48 118.179 226.314 120.221C224.367 123.7 222.823 127.388 221.712 131.215C220.958 133.797 220.44 136.443 220.163 139.118C220.056 140.059 220.03 140.805 220.003 141.303C220.004 141.559 219.98 141.815 219.932 142.066C219.909 141.812 219.909 141.557 219.932 141.303C219.932 140.796 219.932 140.05 220.012 139.1C220.217 136.396 220.691 133.719 221.427 131.108C222.498 127.237 224.021 123.506 225.966 119.99C227.135 117.925 228.44 115.941 229.874 114.05C231.389 111.991 233.153 110.127 235.125 108.5C237.107 106.884 239.262 105.493 241.552 104.353C243.656 103.251 245.836 102.302 248.076 101.511C251.882 100.204 255.818 99.3107 259.816 98.8469C262.506 98.5171 265.222 98.4547 267.924 98.6604C268.659 98.7073 269.39 98.7962 270.114 98.9268C270.37 98.9682 270.623 99.0276 270.87 99.1044Z" fill="#605792"/>
<path d="M348.323 89.9671C348.323 89.9671 348.26 89.9049 348.153 89.7717C348.047 89.6385 347.886 89.4076 347.708 89.1501L346.008 86.7525C345.643 86.2374 345.252 85.6425 344.789 85.0297L343.187 83.085L341.353 80.8383C340.686 80.0569 339.903 79.3021 339.119 78.4762C338.336 77.6504 337.535 76.7713 336.627 75.9277C335.719 75.0841 334.749 74.2227 333.752 73.3347C333.254 72.8907 332.764 72.4467 332.23 71.976L330.575 70.6706C329.444 69.7826 328.323 68.8946 327.103 68.0066C321.788 64.2128 316.151 60.8907 310.254 58.0787L305.564 55.9652L300.909 54.1892C299.387 53.5587 297.838 53.1147 296.343 52.6174C294.847 52.1202 293.388 51.614 291.892 51.2677L287.638 50.1577C286.258 49.7936 284.888 49.5716 283.579 49.2696C282.271 48.9677 281.007 48.7013 279.77 48.5504L276.209 48.0353C273.958 47.6535 271.893 47.5736 270.095 47.396C269.205 47.3249 268.314 47.2272 267.576 47.1917L265.457 47.1384L262.52 47.0408H261.755H261.497C261.582 47.0274 261.669 47.0274 261.755 47.0408H262.52H265.457H267.585C268.359 47.0408 269.205 47.1473 270.112 47.2095C271.893 47.3604 273.993 47.4226 276.245 47.7867L279.805 48.2662C281.042 48.4083 282.306 48.728 283.624 48.9677C284.941 49.2075 286.294 49.4561 287.709 49.8557L291.981 50.9569C293.459 51.2943 294.919 51.8449 296.432 52.2978C297.945 52.7506 299.485 53.1858 301.007 53.8607L305.688 55.6367L310.406 57.759C316.333 60.5774 321.993 63.924 327.317 67.758C328.545 68.646 329.667 69.5962 330.797 70.4753L332.453 71.6741C332.987 72.1181 333.476 72.5621 333.975 73.0416L336.841 75.7057C337.731 76.5937 338.532 77.4817 339.324 78.2898C340.116 79.0979 340.873 79.8882 341.54 80.6785L343.32 82.9429L344.905 84.9143C345.359 85.5359 345.741 86.1398 346.097 86.6903C346.792 87.7293 347.335 88.5463 347.717 89.1323L348.136 89.7806C348.206 89.8344 348.269 89.8971 348.323 89.9671Z" fill="#605792"/>
<path d="M342.964 200.081C342.858 200.273 342.73 200.452 342.581 200.613L341.353 202.061C340.846 202.709 340.205 203.482 339.413 204.343C338.62 205.204 337.775 206.217 336.742 207.265C335.71 208.312 334.606 209.485 333.351 210.666C332.096 211.847 330.734 213.09 329.284 214.386C322.92 219.928 315.945 224.727 308.492 228.692C306.765 229.58 305.136 230.468 303.561 231.152C301.985 231.836 300.517 232.537 299.164 233.106C297.811 233.674 296.565 234.145 295.479 234.562C294.393 234.979 293.441 235.317 292.657 235.565L290.877 236.143C290.671 236.224 290.456 236.284 290.236 236.32C290.428 236.211 290.631 236.121 290.842 236.054L292.622 235.397C293.396 235.121 294.331 234.766 295.408 234.322C296.485 233.878 297.731 233.434 299.066 232.804C300.401 232.173 301.878 231.578 303.418 230.806C304.958 230.033 306.605 229.216 308.322 228.319C311.714 226.454 315.372 224.27 319.066 221.748C322.759 219.226 326.079 216.571 329.034 214.067C330.485 212.788 331.874 211.589 333.111 210.381C334.348 209.174 335.505 208.082 336.529 207.034C337.552 205.986 338.451 205.018 339.252 204.165C340.053 203.313 340.712 202.567 341.246 201.945L342.492 200.533C342.637 200.37 342.795 200.219 342.964 200.081Z" fill="#605792"/>
<path d="M289.151 299.786C289.018 299.786 288.911 285.524 288.911 267.933C288.911 250.342 289.018 236.071 289.151 236.071C289.284 236.071 289.382 250.333 289.382 267.933C289.382 285.533 289.275 299.786 289.151 299.786Z" fill="#605792"/>
<path d="M291.109 372.443C290.976 372.443 290.878 362.435 290.878 350.091C290.878 337.748 290.976 327.731 291.109 327.731C291.242 327.731 291.34 337.739 291.34 350.091C291.34 362.444 291.234 372.443 291.109 372.443Z" fill="#605792"/>
<path d="M341.711 135.887C340.821 137.663 344.141 139.119 346.055 139.696C348.007 140.174 350.027 140.313 352.027 140.105C354.697 139.963 357.43 139.714 359.735 138.4C361.754 137.152 363.367 135.348 364.381 133.205C365.38 131.069 366.17 128.841 366.74 126.554C366.74 126.554 345.707 127.921 341.711 135.887Z" fill="#ABA1EC"/>
<g opacity="0.4">
<path opacity="0.4" d="M341.712 135.887C340.822 137.663 344.142 139.119 346.056 139.696C348.008 140.174 350.028 140.313 352.028 140.105C354.698 139.963 357.431 139.714 359.736 138.4C361.755 137.152 363.368 135.348 364.382 133.205C365.381 131.069 366.171 128.841 366.741 126.554C366.741 126.554 345.708 127.921 341.712 135.887Z" fill="black"/>
</g>
<path d="M401.114 130.204C404.582 132.658 408.737 133.957 412.988 133.916C415.026 134.029 417.035 133.398 418.64 132.14C419.325 131.51 419.841 130.71 420.545 130.106C421.025 129.698 421.586 129.387 422.04 128.952C422.279 128.746 422.464 128.484 422.577 128.19C422.691 127.896 422.729 127.578 422.69 127.265C422.514 126.494 422.081 125.805 421.461 125.311C419.049 123.944 416.165 123.997 413.388 124.059C410.609 124.179 407.864 124.715 405.244 125.649C403.09 126.377 400.838 127.425 399.744 129.378" fill="#ABA1EC"/>
<g opacity="0.4">
<path opacity="0.4" d="M422.69 127.265C422.375 126.516 421.822 125.892 421.115 125.489C418.703 124.122 416.166 123.997 413.389 124.059C410.61 124.179 407.864 124.715 405.245 125.649C403.091 126.377 400.839 127.425 399.744 129.379L401.115 130.204C404.582 132.658 408.737 133.957 412.988 133.916C415.026 134.03 417.035 133.398 418.64 132.14C419.326 131.51 419.842 130.711 420.545 130.107C421.026 129.698 421.586 129.387 422.04 128.952C422.28 128.746 422.465 128.485 422.578 128.19C422.691 127.896 422.73 127.578 422.69 127.265Z" fill="black"/>
</g>
<path d="M360.046 162.074L404.416 162.66C404.507 162.66 404.596 162.639 404.676 162.598C404.757 162.557 404.827 162.498 404.88 162.426C404.934 162.353 404.97 162.269 404.985 162.18C405 162.091 404.995 162 404.968 161.914L399.761 145.717C399.761 145.717 400.527 137.618 401.586 127.886C403.197 113.1 405.342 94.5143 405.369 94.5676C402.334 86.0782 384.425 84.6396 384.425 84.6396L364.016 85.8473L363.304 84.6485L357.43 87.3747C356.148 87.9694 354.916 88.6642 353.745 89.4527C349.864 92.0368 340.518 97.9775 338.809 104.593C334.866 119.911 341.542 137.006 341.542 137.006L345.832 133.658C346.913 132.827 348.049 132.07 349.232 131.393L357.83 154.384C357.319 154.706 356.885 155.137 356.562 155.647C356.239 156.157 356.033 156.733 355.961 157.332C355.89 159.197 356.851 161.435 360.046 162.074Z" fill="#ABA1EC"/>
<g opacity="0.3">
<path opacity="0.3" d="M379.083 134.973C380.49 127.425 379.751 119.664 378.994 112.027C376.538 118.243 376.627 125.347 374.019 131.51C373.699 132.161 373.466 132.85 373.325 133.561C373.257 133.918 373.274 134.286 373.377 134.635C373.479 134.984 373.662 135.304 373.912 135.568C374.624 136.216 375.692 135.861 376.636 135.754C377.48 135.594 378.302 135.331 379.083 134.973Z" fill="black"/>
</g>
<g opacity="0.4">
<path opacity="0.4" d="M362.716 152.448C366.276 153.682 370.067 151.382 373.832 150.973C376.325 150.707 378.817 151.275 381.291 151.675C386.295 152.483 391.385 152.608 396.422 152.048C397.195 152.006 397.952 151.809 398.648 151.471C399.007 151.226 399.301 150.898 399.504 150.514C399.708 150.13 399.814 149.703 399.814 149.269C391.429 148.381 383.054 147.901 374.669 147.04C372.582 146.684 370.445 146.754 368.385 147.244C365.857 148.025 363.935 150.006 362.155 151.968" fill="black"/>
</g>
<path d="M421.407 124.352C417.785 116.209 405.012 93.6895 405.012 93.6895L395.124 106.059L397.429 130.346C397.429 130.346 402.653 124.53 417.259 124.415C418.321 124.457 419.359 124.736 420.299 125.23C421.238 125.725 422.055 126.423 422.689 127.274L421.407 124.352Z" fill="#ABA1EC"/>
<path d="M362.032 120.046C361.327 118.319 360.767 116.537 360.359 114.718C359.806 112.946 359.401 111.131 359.148 109.292C359.844 111.021 360.4 112.803 360.813 114.62C361.366 116.393 361.774 118.207 362.032 120.046Z" fill="#605792"/>
<path d="M394.376 104.417C394.698 104.644 394.996 104.902 395.266 105.189C396.052 105.947 396.79 106.754 397.473 107.604C399.775 110.411 401.393 113.712 402.2 117.248C402.618 119.203 402.712 121.213 402.475 123.198C402.253 125.018 401.906 126.617 401.674 127.966C401.443 129.316 401.301 130.417 401.229 131.181C401.227 131.578 401.186 131.974 401.105 132.362C401.042 131.966 401.024 131.564 401.051 131.163C401.091 130.075 401.192 128.99 401.354 127.913C401.541 126.555 401.852 124.938 402.057 123.153C402.263 121.213 402.158 119.253 401.746 117.346C400.948 113.876 399.402 110.621 397.215 107.809C395.586 105.624 394.305 104.488 394.376 104.417Z" fill="#605792"/>
<path d="M358.204 107.479C357.526 107.082 356.87 106.649 356.237 106.182C353.072 104.108 349.479 102.769 345.726 102.266C344.94 102.209 344.158 102.105 343.385 101.955C344.173 101.847 344.973 101.847 345.761 101.955C349.617 102.284 353.31 103.656 356.442 105.925C357.099 106.359 357.692 106.882 358.204 107.479Z" fill="#605792"/>
<path d="M405.014 93.395C403.421 94.6749 401.932 96.0794 400.563 97.5953C399.303 99.2131 398.175 100.93 397.19 102.728C397.295 102.123 397.503 101.541 397.804 101.005C398.449 99.6737 399.256 98.427 400.207 97.2934C401.162 96.1621 402.256 95.1565 403.465 94.3008C403.925 93.9121 404.449 93.6057 405.014 93.395Z" fill="#605792"/>
<path d="M395.577 327.83L392.915 367.657L375.559 367.453L372.827 326.045L395.577 327.83Z" fill="#FFBE9D"/>
<path d="M393.406 362.419V363.573C393.406 363.573 412.987 371.423 413.174 375.117L374.287 374.904L374.892 362.001C380.687 364.71 386.748 365.047 393.406 362.419Z" fill="#ABA1EC"/>
<path d="M378.836 366.139C378.467 366.25 378.151 366.492 377.948 366.819C377.745 367.146 377.668 367.535 377.733 367.915C377.828 368.293 378.066 368.621 378.398 368.828C378.73 369.035 379.13 369.105 379.513 369.025C379.909 368.907 380.247 368.646 380.46 368.293C380.674 367.94 380.749 367.52 380.67 367.115C380.529 366.732 380.244 366.418 379.875 366.241C379.506 366.063 379.082 366.036 378.694 366.165" fill="white"/>
<path d="M374.287 374.903L374.43 371.804L411.67 373.154C411.67 373.154 413.397 373.918 413.192 375.125L374.287 374.903Z" fill="#263238"/>
<path d="M393.548 363.679C393.548 363.865 392.587 363.945 391.652 364.567C390.718 365.188 390.211 365.961 390.041 365.89C389.872 365.819 390.157 364.718 391.305 364.007C392.454 363.297 393.593 363.474 393.548 363.679Z" fill="#263238"/>
<path d="M397.617 365.385C397.661 365.571 396.833 365.882 396.184 366.681C395.534 367.48 395.347 368.324 395.151 368.315C394.955 368.306 394.848 367.232 395.676 366.264C396.504 365.296 397.608 365.251 397.617 365.385Z" fill="#263238"/>
<path d="M399.904 370.266C399.726 370.266 399.468 369.378 399.966 368.322C400.465 367.265 401.346 366.883 401.426 367.034C401.506 367.185 400.954 367.745 400.536 368.606C400.117 369.467 400.1 370.249 399.904 370.266Z" fill="#263238"/>
<path d="M392.409 36.5544C393.415 34.068 392.196 31.0576 390.033 29.4503C387.753 27.9532 384.974 27.414 382.298 27.9496C379.658 28.5018 377.103 29.3974 374.697 30.6136C373.578 29.4879 372.168 28.6946 370.623 28.3223C369.079 27.95 367.461 28.0134 365.951 28.5053C364.44 28.9971 363.097 29.8982 362.07 31.1079C361.043 32.3175 360.373 33.7882 360.135 35.3556C359.173 35.1139 358.163 35.1382 357.213 35.4259C356.264 35.7136 355.411 36.2539 354.746 36.9886C354.08 37.7234 353.628 38.625 353.438 39.5967C353.248 40.5684 353.326 41.5734 353.665 42.504L365.698 46.7221L378.836 69.8103C380.777 71.4629 383.255 72.3544 385.807 72.3183C388.359 72.2822 390.811 71.3211 392.705 69.6142C394.598 67.9074 395.805 65.5714 396.1 63.0421C396.394 60.5129 395.756 57.9631 394.305 55.8686C395.041 55.2155 395.666 54.4478 396.156 53.5953C397.206 52.9759 398.122 52.1545 398.851 51.1788C399.58 50.2032 400.107 49.0927 400.402 47.912C401.568 42.7704 397.581 37.1582 392.409 36.5544Z" fill="#263238"/>
<path d="M384.444 84.6409C383.696 80.8846 383.18 78.3094 383.189 78.336C383.198 78.3626 390.309 75.5832 389.793 65.6996C389.544 60.7801 387.666 53.0278 385.921 46.7407C384.355 41.0752 379.059 34.8325 373.46 36.6351L356.487 44.8936C354.787 45.4442 354.493 47.0426 354.894 48.7742V49.6622L361.489 76.8886L364.275 89.0543C364.869 91.5523 366.378 93.7381 368.507 95.1811C370.635 96.6241 373.228 97.2198 375.775 96.851C377.165 96.6558 378.501 96.1792 379.701 95.4502C380.9 94.7213 381.938 93.7555 382.75 92.6121C383.562 91.4686 384.131 90.1718 384.422 88.801C384.713 87.4303 384.721 86.0146 384.444 84.6409Z" fill="#FFBE9D"/>
<path d="M383.189 78.3361C378.687 79.3512 373.991 79.0991 369.624 77.6079C369.624 77.6079 374.288 83.6819 383.696 80.7781L383.189 78.3361Z" fill="#E7966B"/>
<path d="M360.679 38.5338C360.876 39.4958 361.283 40.4027 361.871 41.1901C362.459 41.9775 363.213 42.626 364.081 43.0897C364.948 43.5534 365.907 43.8208 366.89 43.8729C367.873 43.925 368.855 43.7606 369.767 43.3912C371.173 42.8229 372.633 41.7573 374.057 42.2724C375.481 42.7874 376.068 44.8121 377.43 45.5669C379.433 46.6858 381.881 44.7499 384.115 44.9453C385.895 45.0962 387.239 46.4549 388.618 47.6093C389.998 48.7637 391.903 49.6339 393.46 48.7992C393.104 47.3163 392.575 45.8798 391.885 44.519C391.189 43.149 390.037 42.0629 388.627 41.4465C387.844 41.1357 386.998 41.0291 386.251 40.6473C384.64 39.8303 383.919 37.9833 382.753 36.5891C381.987 35.7105 381.022 35.0267 379.939 34.5943C378.855 34.1619 377.684 33.9934 376.522 34.1027C374.6 34.298 372.775 35.266 370.835 35.186C369.402 35.1239 368.031 34.4845 366.598 34.5112C363.812 34.5112 361.721 36.9976 360.172 39.3153" fill="#263238"/>
<path d="M370.06 40.5686C368.778 40.4709 366.161 40.2045 365.298 39.2987C364.421 38.32 363.301 37.5883 362.052 37.1768C360.802 36.7654 359.466 36.6887 358.177 36.9544C356.899 37.3347 355.776 38.1147 354.975 39.1794C354.174 40.244 353.736 41.5372 353.727 42.8685C352.17 43.2477 350.744 44.0394 349.6 45.1601C348.457 46.2808 347.638 47.6889 347.23 49.2355C346.815 50.8547 346.801 52.55 347.189 54.1757C347.577 55.8014 348.354 57.3089 349.455 58.5685C349.989 59.2356 350.477 59.9388 350.914 60.6731C350.311 61.4201 349.78 62.2229 349.33 63.0707C347.292 67.564 352.819 69.2868 352.819 69.2868C352.819 72.306 355.623 72.2882 357.412 72.2794C359.201 72.2705 360.189 77.0391 361.586 76.8526L360.171 62.1383C360.378 62.2187 360.599 62.2608 360.821 62.2626C364.194 62.3248 363.313 55.9489 362.227 54.2706C363.232 53.0223 364.081 51.6566 364.755 50.2035C365.366 47.9822 365.409 45.6434 364.88 43.4013C366.01 43.2593 370.612 40.6041 370.06 40.5686Z" fill="#263238"/>
<path d="M360.616 62.92C360.501 62.4525 360.27 62.0216 359.943 61.6675C359.616 61.3135 359.204 61.0478 358.747 60.8953C358.289 60.7428 357.8 60.7085 357.325 60.7954C356.851 60.8824 356.406 61.0879 356.032 61.3927C355.142 62.1563 354.671 63.4351 355.205 65.5752C356.647 71.2939 362.103 68.6743 362.067 68.5145C362.031 68.3546 361.239 65.2821 360.616 62.92Z" fill="#FFBE9D"/>
<path d="M367.533 147.911C367.533 147.911 389.571 149.19 402.601 149.305C412.686 149.403 417.189 146.73 419.201 140.256C420.892 134.83 417.261 124.414 417.261 124.414C410.434 124.414 406.224 125.391 401.836 127.442L403.002 132.202L367.47 135.257L367.533 147.911Z" fill="#FFBE9D"/>
<path d="M410.406 137.281C409.451 136.041 408.334 134.933 407.087 133.986C405.748 133.169 404.305 132.536 402.796 132.104C403.271 132.036 403.756 132.078 404.212 132.228C405.331 132.492 406.393 132.959 407.345 133.605C408.298 134.252 409.122 135.072 409.775 136.02C410.273 136.748 410.46 137.254 410.406 137.281Z" fill="#E7966B"/>
<path d="M359.468 127.406C359.468 127.406 352.65 129.04 347.639 132.379L352.979 146.818C354.759 151.56 360.198 153.922 364.55 151.436C371.252 147.608 373.62 136.455 373.62 136.455L380.981 104.593L368.778 96.9653L359.512 127.406" fill="#FFBE9D"/>
<path d="M368.734 96.9654L369.232 86.4868L366.5 75.8307C366.348 75.2447 366.277 74.5076 366.758 74.1524C366.996 73.9701 367.29 73.8757 367.591 73.8854C367.891 73.8952 368.178 74.0083 368.404 74.2057C369.143 74.9694 372.703 84.2846 372.703 84.2846C372.703 84.2846 378.106 81.0522 379.067 80.8924C380.029 80.7326 381.23 83.6363 381.31 83.8583C381.346 84.5091 381.346 85.1612 381.31 85.812C381.31 85.812 384.648 85.9096 384.951 86.3625C385.193 87.2877 385.322 88.239 385.333 89.1953C385.333 89.1953 386.749 89.6482 386.971 90.7138C387.194 91.7794 387.656 93.5376 386.971 93.9284C386.286 94.3191 384.897 95.0828 384.897 95.0828C384.897 95.0828 384.336 100.517 384.185 101.015C384.034 101.512 380.91 104.567 380.91 104.567L368.734 96.9654Z" fill="#FFBE9D"/>
<path d="M357.376 151.649C357.376 151.649 357.705 151.845 358.4 152.067C359.415 152.385 360.489 152.47 361.541 152.316C363.233 152.075 364.817 151.346 366.099 150.22C367.793 148.686 369.224 146.887 370.335 144.892C370.99 143.719 371.541 142.492 371.982 141.224C372.445 139.829 372.828 138.409 373.13 136.971C373.824 133.978 374.581 130.755 375.382 127.327C376.984 120.48 378.782 112.826 380.722 104.576V104.514H380.767C381.381 103.91 381.995 103.297 382.609 102.658C382.912 102.338 383.215 102.019 383.499 101.69C383.642 101.521 383.793 101.353 383.909 101.184C383.999 101.017 384.051 100.832 384.06 100.642C384.301 98.8663 384.487 97.0281 384.683 95.1722V95.0567L384.79 95.0034L386.49 94.0533C386.615 93.9734 386.81 93.8846 386.891 93.8135C386.976 93.7367 387.032 93.6334 387.051 93.5205C387.092 93.2259 387.092 92.927 387.051 92.6325C386.965 91.9813 386.831 91.3372 386.65 90.7055C386.348 90.1531 385.839 89.7416 385.235 89.5599L385.084 89.5067V89.3557C385.084 88.8407 385.03 88.3079 384.968 87.7839C384.944 87.5215 384.905 87.2607 384.852 87.0025C384.832 86.8887 384.796 86.7782 384.746 86.6739C384.746 86.6118 384.746 86.6739 384.692 86.6206C384.644 86.5953 384.593 86.5745 384.541 86.5585C383.47 86.3258 382.379 86.2038 381.283 86.1944H381.052V85.9635C381.052 85.413 381.052 84.8002 381.052 84.1875C381.015 83.9785 380.943 83.7773 380.838 83.5925C380.749 83.3794 380.642 83.1752 380.536 82.9621C380.327 82.5507 380.083 82.1585 379.806 81.7899C379.68 81.6181 379.526 81.4681 379.352 81.3459C379.287 81.2914 379.208 81.2573 379.124 81.2479C379.04 81.2384 378.955 81.2539 378.88 81.2926C378.449 81.4572 378.03 81.65 377.625 81.8698C375.969 82.7578 374.35 83.6458 372.765 84.6049L372.534 84.7469L372.436 84.4983C371.599 82.3937 370.763 80.3158 369.944 78.2822C369.534 77.261 369.134 76.2398 368.724 75.2364C368.661 75.0116 368.536 74.8091 368.363 74.652C368.19 74.495 367.976 74.3897 367.745 74.3484C367.533 74.2779 367.302 74.2818 367.092 74.3592C366.882 74.4367 366.704 74.5832 366.588 74.7746C366.477 74.9651 366.43 75.1861 366.455 75.4051C366.455 75.6005 366.579 75.9024 366.633 76.1422C366.775 76.6572 366.909 77.1634 367.042 77.6695C367.309 78.6907 367.567 79.6942 367.834 80.6888C368.356 82.6897 368.87 84.6433 369.374 86.5496V86.6118C369.196 90.2585 369.027 93.7514 368.867 97.0903V97.0725L360.758 123.393L358.471 130.719C358.204 131.545 357.999 132.193 357.857 132.646C357.714 133.099 357.625 133.294 357.625 133.294C357.625 133.294 357.67 133.063 357.794 132.628L358.355 130.684C358.871 128.97 359.61 126.492 360.545 123.331C362.467 116.973 365.2 107.897 368.502 96.9571V97.0015C368.656 93.6744 368.813 90.1816 368.974 86.523V86.5851C368.466 84.6759 367.941 82.7223 367.416 80.7332L366.615 77.7139C366.481 77.2078 366.348 76.6927 366.205 76.1866C366.129 75.9207 366.066 75.6509 366.019 75.3785C365.986 75.0702 366.051 74.7595 366.205 74.4905C366.37 74.2135 366.624 74.0005 366.926 73.8866C367.225 73.7994 367.541 73.7895 367.845 73.8578C368.149 73.9262 368.43 74.0706 368.662 74.2773C368.885 74.4864 369.051 74.7494 369.143 75.041L370.362 78.0869C371.19 80.1293 372.018 82.2072 372.863 84.3029L372.534 84.1875C374.127 83.2462 375.729 82.3049 377.42 81.4258C377.848 81.2029 378.288 81.0043 378.738 80.8308C378.878 80.7725 379.031 80.7511 379.183 80.7687C379.335 80.7906 379.481 80.8452 379.61 80.9285C379.824 81.0819 380.013 81.2677 380.171 81.4791C380.468 81.8677 380.728 82.284 380.945 82.7223C381.061 82.9443 381.167 83.1574 381.265 83.3794C381.392 83.6145 381.476 83.87 381.515 84.1342C381.515 84.7647 381.515 85.3508 381.515 85.9102L381.292 85.6705C382.436 85.6781 383.576 85.8091 384.692 86.0612C384.769 86.0879 384.843 86.1206 384.915 86.1589C385.012 86.212 385.093 86.2922 385.146 86.3898C385.215 86.5339 385.266 86.686 385.297 86.8426C385.351 87.1268 385.386 87.3932 385.422 87.6685C385.475 88.2102 385.511 88.743 385.538 89.2758L385.377 89.0627C385.741 89.1692 386.08 89.3485 386.372 89.5897C386.664 89.831 386.904 90.129 387.077 90.4657C387.273 91.1405 387.415 91.8293 387.505 92.5259C387.567 92.8814 387.567 93.2449 387.505 93.6004C387.466 93.8157 387.353 94.0106 387.184 94.151C387.038 94.2485 386.887 94.3374 386.73 94.4174L385.039 95.2965L385.155 95.1278C384.95 96.9837 384.763 98.8041 384.514 100.607L384.461 100.953C384.44 101.093 384.382 101.225 384.292 101.335C384.161 101.529 384.015 101.713 383.855 101.886C383.553 102.223 383.25 102.552 382.965 102.871C382.351 103.511 381.737 104.123 381.114 104.727L381.176 104.621C379.218 112.861 377.402 120.516 375.774 127.362C374.964 130.781 374.189 134.005 373.477 136.988C373.173 138.438 372.78 139.867 372.302 141.269C371.844 142.548 371.279 143.787 370.611 144.972C369.474 146.992 368.01 148.81 366.277 150.353C364.956 151.487 363.332 152.209 361.604 152.431C360.528 152.575 359.434 152.465 358.408 152.111C358.148 152.016 357.895 151.9 357.652 151.765L357.376 151.649Z" fill="#E7966B"/>
<path d="M381.319 85.8392C381.319 85.9013 381.016 85.9368 380.545 85.9546C379.946 85.966 379.349 86.0374 378.765 86.1677C378.2 86.3061 377.68 86.584 377.251 86.9758C376.931 87.2777 376.789 87.5352 376.717 87.5086C376.646 87.482 376.717 87.1623 377.011 86.7538C377.426 86.2367 378.003 85.8739 378.649 85.7237C379.272 85.5705 379.919 85.5404 380.554 85.6349C381.034 85.6971 381.319 85.777 381.319 85.8392Z" fill="#EB996E"/>
<path d="M378.738 85.9364C378.623 85.892 378.614 85.6167 378.738 85.3237C378.863 85.0307 379.04 84.8264 379.156 84.8708C379.271 84.9152 379.289 85.1905 379.156 85.4835C379.023 85.7766 378.827 85.9808 378.738 85.9364Z" fill="#EB996E"/>
<path d="M385.485 89.1609C384.621 89.4276 383.719 89.5506 382.815 89.5249C382.53 89.5155 382.247 89.5742 381.99 89.6963C381.733 89.8184 381.509 90.0002 381.337 90.2265C381.106 90.5905 381.186 90.8925 381.115 90.9102C381.043 90.928 380.83 90.6172 381.052 90.0844C381.175 89.7844 381.398 89.5363 381.684 89.3829C382.014 89.2025 382.378 89.0936 382.752 89.0632C383.661 88.9243 384.588 88.9575 385.485 89.1609Z" fill="#EB996E"/>
<path d="M384.896 92.357C385.021 92.357 385.092 93.0141 385.056 93.8222C385.021 94.6303 384.887 95.2697 384.763 95.2697C384.639 95.2697 384.559 94.6037 384.594 93.7956C384.63 92.9875 384.763 92.3481 384.896 92.357Z" fill="#EB996E"/>
<path d="M370.433 351.576L397.58 351.443L397.091 257.803L396.833 162.546L360.046 162.075L353.433 174.507C350.727 179.505 349.002 184.973 348.351 190.616C347.906 194.932 351.146 208.962 352.267 212.514L362.387 244.536L370.433 351.576Z" fill="#263238"/>
<path d="M404.799 162.66L434.634 243.798C436.402 249.025 436.989 254.579 436.353 260.059C435.718 265.54 433.876 270.813 430.958 275.5L396.317 342.988L376.842 318.675L405.823 258.29L380.278 216.953L384.577 162.785L396.611 162.589L404.799 162.66Z" fill="#263238"/>
<path d="M394.358 189.842C394.358 189.842 394.358 189.984 394.358 190.26C394.358 190.535 394.403 190.961 394.439 191.485C394.501 192.577 394.581 194.149 394.688 196.183C394.892 200.294 395.177 206.199 395.578 213.49C395.978 220.781 396.317 229.474 396.762 239.153C396.975 243.984 397.207 249.055 397.438 254.312C397.607 256.976 397.536 259.64 397.563 262.304C397.589 264.968 397.563 267.774 397.563 270.562C397.563 292.878 397.634 313.08 397.661 327.723C397.661 335.023 397.661 340.937 397.661 345.048C397.661 347.082 397.661 348.663 397.661 349.764C397.661 350.279 397.661 350.652 397.661 350.989C397.661 351.327 397.661 351.407 397.661 351.407C397.661 351.407 397.661 351.264 397.661 350.989V349.764C397.661 348.663 397.661 347.1 397.607 345.048C397.607 340.937 397.536 335.032 397.483 327.732C397.42 313.089 397.34 292.887 397.251 270.571C397.251 267.783 397.251 265.03 397.251 262.313C397.251 259.595 397.305 256.914 397.135 254.321C396.913 249.072 396.69 244.002 396.486 239.171C396.076 229.51 395.702 220.816 395.4 213.499C395.097 206.182 394.875 200.303 394.706 196.192C394.634 194.167 394.581 192.586 394.545 191.485C394.545 190.961 394.545 190.597 394.545 190.26C394.545 189.922 394.358 189.842 394.358 189.842Z" fill="#455A64"/>
<path d="M393.673 164.259C393.777 164.545 393.84 164.844 393.86 165.147C393.958 165.716 394.065 166.541 394.189 167.572C394.421 169.623 394.67 172.473 394.812 175.626C394.954 178.778 394.963 181.638 394.919 183.707C394.919 184.737 394.856 185.58 394.812 186.158C394.821 186.457 394.785 186.757 394.705 187.046C394.593 185.936 394.555 184.821 394.59 183.707C394.59 181.638 394.492 178.796 394.349 175.644C394.207 172.491 394.011 169.658 393.86 167.651C393.734 166.525 393.671 165.393 393.673 164.259Z" fill="#455A64"/>
<path d="M387.692 166.088C387.736 166.15 387.229 166.381 387.086 167.1C387.047 167.295 387.057 167.498 387.118 167.687C387.179 167.877 387.288 168.048 387.434 168.184C387.61 168.347 387.829 168.457 388.066 168.499C388.303 168.542 388.546 168.515 388.769 168.423C388.982 168.314 389.16 168.147 389.283 167.941C389.406 167.735 389.468 167.499 389.463 167.26C389.455 167.061 389.396 166.868 389.291 166.699C389.187 166.529 389.041 166.389 388.867 166.292C388.505 166.117 388.101 166.047 387.701 166.088C387.701 166.088 387.79 165.973 388.021 165.901C388.355 165.82 388.706 165.855 389.018 165.999C389.266 166.102 389.481 166.272 389.638 166.49C389.796 166.708 389.889 166.966 389.908 167.233C389.943 167.564 389.874 167.897 389.709 168.187C389.545 168.476 389.293 168.706 388.991 168.845C388.688 168.985 388.349 169.026 388.022 168.963C387.695 168.9 387.396 168.736 387.167 168.494C386.977 168.307 386.843 168.071 386.779 167.813C386.715 167.554 386.722 167.283 386.802 167.029C386.891 166.697 387.092 166.405 387.371 166.203C387.549 166.079 387.683 166.061 387.692 166.088Z" fill="#455A64"/>
<path d="M373.451 164.481C373.582 164.761 373.663 165.061 373.691 165.369C373.834 166.166 373.861 166.98 373.771 167.784C373.643 168.983 373.296 170.147 372.748 171.221C372.085 172.556 371.103 173.709 369.89 174.577C368.676 175.446 367.268 176.004 365.787 176.203C364.602 176.379 363.395 176.334 362.227 176.069C361.437 175.898 360.675 175.614 359.966 175.226C359.698 175.099 359.452 174.932 359.236 174.729C360.22 175.17 361.246 175.512 362.298 175.75C363.564 176.012 364.871 176.01 366.136 175.744C367.401 175.477 368.597 174.952 369.648 174.201C370.7 173.45 371.583 172.489 372.244 171.38C372.905 170.272 373.328 169.038 373.486 167.758C373.591 166.667 373.579 165.569 373.451 164.481Z" fill="#455A64"/>
<path d="M408.377 172.259C407.796 172.326 407.208 172.256 406.659 172.055C405.315 171.632 404.107 170.86 403.161 169.817C402.207 168.779 401.552 167.503 401.265 166.123C401.125 165.56 401.125 164.972 401.265 164.409C401.345 164.409 401.354 165.057 401.621 166.052C401.982 167.337 402.638 168.521 403.537 169.509C404.436 170.497 405.554 171.262 406.802 171.744C407.727 172.108 408.386 172.17 408.377 172.259Z" fill="#455A64"/>
<path d="M418.977 259.728C418.531 260.236 417.997 260.66 417.402 260.98C416.777 261.376 416.096 261.675 415.381 261.868C414.482 262.106 413.534 262.081 412.649 261.797C411.094 261.213 409.762 260.157 408.839 258.778C408.415 258.26 408.065 257.686 407.798 257.073C408.278 257.531 408.713 258.033 409.097 258.574C410.043 259.824 411.319 260.787 412.782 261.353C413.529 261.552 414.309 261.598 415.074 261.486C415.839 261.375 416.574 261.109 417.233 260.705C417.795 260.347 418.377 260.02 418.977 259.728Z" fill="#455A64"/>
<path d="M412.179 264.906C411.127 263.819 410.187 262.629 409.375 261.354C408.439 260.167 407.622 258.891 406.936 257.544C407.995 258.627 408.938 259.818 409.749 261.096C410.692 262.276 411.507 263.554 412.179 264.906Z" fill="#455A64"/>
</svg>
